<svg width="332" height="251" viewBox="0 0 332 251" fill="none" xmlns="http://www.w3.org/2000/svg">
<path fill-rule="evenodd" clip-rule="evenodd" d="M186.845 1.80051C188.943 0.60017 191.283 0 193.866 0H332C332 9.91255 330.245 17.229 326.735 21.9492C323.225 26.6695 317.856 29.0296 310.63 29.0296H208.113V110.799L294.37 110.813C294.37 120.726 292.615 128.042 289.105 132.762C285.595 137.483 280.227 139.843 273 139.843H208.113V224.094C208.113 233.299 205.739 240.143 200.99 244.628C196.241 248.876 188.911 251 179 251V250.998C178.913 250.999 178.825 251 178.738 251H69.7688C56.1028 251 43.9951 248.012 33.4459 242.036C22.8966 236.06 14.7449 227.693 8.99081 216.936C2.99695 206.179 0 193.868 0 180.003C0 165.899 3.71619 153.947 11.1486 144.146C18.581 134.106 29.1303 127.054 42.7963 122.99V122.273C33.2061 117.492 25.4141 110.201 19.4202 100.4C13.4263 90.599 10.4294 80.081 10.4294 68.8457C10.4294 47.8095 16.663 31.0762 29.1303 18.6457C41.3578 6.21524 57.9009 0 78.7596 0H178.738C181.718 0 184.42 0.600168 186.845 1.80051ZM54.3046 98.9657C61.2575 106.854 69.6489 110.799 79.4789 110.799H162.554V29.0443H79.4789C68.2104 29.0443 59.4593 32.63 53.2257 39.8014C46.7523 46.9729 43.5156 56.8933 43.5156 69.5629C43.5156 81.0371 47.1119 90.8381 54.3046 98.9657ZM43.5156 211.199C50.4685 218.37 60.0587 221.956 72.2862 221.956H162.554V139.843H72.2862C59.819 139.843 50.2288 143.429 43.5156 150.6C36.5627 157.771 33.0862 167.692 33.0862 180.361C33.0862 193.509 36.5627 203.788 43.5156 211.199Z" fill="white"/>

</svg>
