<svg width="480" height="31" viewBox="0 0 480 31" fill="none" xmlns="http://www.w3.org/2000/svg">
<path d="M2.34675 24C1.72808 24 1.19475 23.776 0.74675 23.328C0.320083 22.88 0.10675 22.3467 0.10675 21.728V4.48C0.10675 3.41333 0.45875 2.624 1.16275 2.112C1.86675 1.57867 2.94408 1.312 4.39475 1.312V20.288H13.0348C14.0374 20.288 14.7948 20.608 15.3068 21.248C15.8188 21.8667 16.0748 22.784 16.0748 24H2.34675ZM22.7313 24.288C21.6433 24.288 20.6406 24.0747 19.7233 23.648C18.8273 23.2213 18.1019 22.6133 17.5473 21.824C17.0139 21.0133 16.7473 20.0533 16.7473 18.944C16.7473 17.8347 17.0353 16.8747 17.6113 16.064C18.1873 15.232 18.9659 14.6027 19.9473 14.176C20.9499 13.728 22.0486 13.504 23.2433 13.504C24.2246 13.504 25.0993 13.664 25.8673 13.984C26.6566 14.2827 27.3819 14.7413 28.0433 15.36L28.2033 15.2C28.0113 15.008 27.6806 14.72 27.2113 14.336V13.696C27.2113 12.8213 26.9019 12.128 26.2833 11.616C25.6646 11.104 24.8006 10.848 23.6913 10.848C21.7073 10.848 20.2459 11.5733 19.3073 13.024C18.8379 12.8747 18.4433 12.64 18.1233 12.32C17.8032 11.9787 17.6432 11.616 17.6432 11.232C17.6432 10.592 17.9313 10.0053 18.5073 9.472C19.0833 8.93867 19.8619 8.512 20.8433 8.192C21.8246 7.872 22.8913 7.712 24.0433 7.712C26.3046 7.712 28.0539 8.24533 29.2913 9.312C30.5286 10.3573 31.1473 11.7867 31.1473 13.6V21.6C31.1473 22.5387 30.8486 23.2213 30.2513 23.648C29.6539 24.0747 28.7153 24.288 27.4353 24.288V22.976C27.7979 22.6133 28.0433 22.3467 28.1713 22.176L28.0433 22.016C27.3393 22.7627 26.5819 23.328 25.7713 23.712C24.9819 24.096 23.9686 24.288 22.7313 24.288ZM23.7552 21.376C24.8646 21.376 25.7286 21.1627 26.3473 20.736C26.9659 20.3093 27.2753 19.7013 27.2753 18.912C27.2753 18.144 26.9553 17.536 26.3153 17.088C25.6966 16.64 24.8539 16.416 23.7873 16.416C22.8059 16.416 22.0273 16.64 21.4513 17.088C20.8966 17.5147 20.6193 18.1227 20.6193 18.912C20.6193 19.7227 20.8966 20.3413 21.4513 20.768C22.0059 21.1733 22.7739 21.376 23.7552 21.376ZM42.9818 3.552C42.9818 2.99733 43.1844 2.53867 43.5898 2.176C43.9951 1.792 44.5071 1.6 45.1258 1.6H54.0218C55.5578 1.6 56.9124 1.90933 58.0858 2.528C59.2804 3.12533 60.1978 3.98933 60.8378 5.12C61.4991 6.22933 61.8298 7.52 61.8298 8.992C61.8298 10.4853 61.5098 11.7973 60.8698 12.928C60.2298 14.0373 59.3231 14.9013 58.1498 15.52C56.9764 16.1173 55.6004 16.416 54.0218 16.416H47.2698V21.12C47.2698 22.144 46.8964 22.9333 46.1498 23.488C45.4244 24.0213 44.3684 24.288 42.9818 24.288V3.552ZM54.0218 12.704C55.1524 12.704 56.0271 12.3733 56.6458 11.712C57.2644 11.0507 57.5738 10.1333 57.5738 8.96C57.5738 7.808 57.2538 6.912 56.6138 6.272C55.9951 5.632 55.1311 5.312 54.0218 5.312H47.2698V12.704H54.0218ZM69.8015 24.288C68.4788 24.288 67.2735 24.032 66.1855 23.52C65.0975 22.9867 64.2335 22.272 63.5935 21.376C62.9535 20.4587 62.6335 19.4347 62.6335 18.304V14.048C62.6335 12.8533 62.9642 11.776 63.6255 10.816C64.2868 9.856 65.1615 9.09867 66.2495 8.544C67.3588 7.98933 68.5535 7.712 69.8335 7.712C71.0922 7.712 72.2442 7.97867 73.2895 8.512C74.3562 9.024 75.1988 9.74933 75.8175 10.688C76.4362 11.6053 76.7455 12.6613 76.7455 13.856V15.648C76.7455 16.1173 76.5642 16.512 76.2015 16.832C75.8602 17.152 75.4228 17.312 74.8895 17.312H66.5055V18.016C66.5055 18.9333 66.7828 19.68 67.3375 20.256C67.8922 20.832 68.7242 21.12 69.8335 21.12C70.9002 21.12 71.6895 20.8853 72.2015 20.416C72.7348 19.9467 73.0015 19.3387 73.0015 18.592C73.3855 18.5493 73.6522 18.528 73.8015 18.528C74.5908 18.528 75.2095 18.7093 75.6575 19.072C76.1055 19.4133 76.3295 19.904 76.3295 20.544C76.3295 21.1627 76.0415 21.76 75.4655 22.336C74.8895 22.912 74.1002 23.3813 73.0975 23.744C72.0948 24.1067 70.9962 24.288 69.8015 24.288ZM73.1295 14.464V13.856C73.1295 12.96 72.8202 12.2347 72.2015 11.68C71.5828 11.1253 70.7828 10.848 69.8015 10.848C68.8202 10.848 68.0202 11.1253 67.4015 11.68C66.8042 12.2133 66.5055 12.9387 66.5055 13.856V14.464H73.1295ZM82.4815 6.208C81.7135 6.208 81.0735 5.984 80.5615 5.536C80.0708 5.06667 79.8255 4.46933 79.8255 3.744C79.8255 3.04 80.0708 2.464 80.5615 2.016C81.0735 1.54667 81.7135 1.312 82.4815 1.312C83.2495 1.312 83.8788 1.54667 84.3695 2.016C84.8815 2.464 85.1375 3.04 85.1375 3.744C85.1375 4.46933 84.8815 5.06667 84.3695 5.536C83.8788 5.984 83.2495 6.208 82.4815 6.208ZM80.4655 10.144C80.4655 9.26933 80.7962 8.65067 81.4575 8.288C82.1188 7.904 83.1215 7.712 84.4655 7.712V21.856C84.4655 22.7093 84.1348 23.328 83.4735 23.712C82.8122 24.096 81.8095 24.288 80.4655 24.288V10.144ZM88.9193 10.784C88.9193 9.80267 89.2286 9.04533 89.8473 8.512C90.4873 7.97867 91.4473 7.712 92.7273 7.712V9.632C92.4713 9.93067 92.2153 10.272 91.9593 10.656L92.1513 10.784C92.7913 9.824 93.6126 9.07733 94.6153 8.544C95.6179 7.98933 96.7273 7.712 97.9433 7.712C99.0313 7.712 99.9913 7.95733 100.823 8.448C101.655 8.93867 102.295 9.61067 102.743 10.464C103.213 11.3173 103.447 12.2773 103.447 13.344V21.856C103.447 22.7093 103.117 23.328 102.455 23.712C101.794 24.096 100.791 24.288 99.4473 24.288V13.92C99.4473 13.1093 99.2019 12.448 98.7113 11.936C98.2419 11.424 97.5486 11.168 96.6313 11.168C95.5433 11.168 94.6473 11.5093 93.9433 12.192C93.2393 12.8533 92.8873 13.6853 92.8873 14.688V21.856C92.8873 22.7093 92.5673 23.328 91.9273 23.712C91.2873 24.096 90.2846 24.288 88.9193 24.288V10.784ZM114.035 24.288C112.307 24.288 111.027 23.7867 110.195 22.784C109.363 21.7813 108.947 20.4907 108.947 18.912V10.976H105.651C105.651 9.97333 105.843 9.22667 106.227 8.736C106.611 8.24533 107.123 8 107.763 8H109.011V5.344C109.011 4.46933 109.331 3.85067 109.971 3.488C110.611 3.104 111.582 2.912 112.883 2.912V8H117.139C117.139 9.06667 116.937 9.83467 116.531 10.304C116.126 10.752 115.475 10.976 114.579 10.976H112.947V18.752C112.947 19.4987 113.086 20.032 113.363 20.352C113.662 20.672 114.163 20.832 114.867 20.832C115.614 20.832 116.361 20.6293 117.107 20.224C117.321 20.416 117.491 20.6613 117.619 20.96C117.747 21.2373 117.811 21.5253 117.811 21.824C117.811 22.464 117.481 23.04 116.819 23.552C116.158 24.0427 115.23 24.288 114.035 24.288ZM135.002 21.184C135.002 22.1867 134.682 22.9547 134.042 23.488C133.423 24.0213 132.474 24.288 131.194 24.288V22.368C131.471 22.048 131.727 21.696 131.962 21.312L131.77 21.184C130.404 23.2533 128.57 24.288 126.266 24.288C125.178 24.288 124.196 24.0427 123.322 23.552C122.468 23.04 121.786 22.336 121.274 21.44C120.783 20.544 120.538 19.5307 120.538 18.4V10.144C120.538 9.26933 120.858 8.65067 121.498 8.288C122.159 7.904 123.162 7.712 124.506 7.712V18.112C124.506 18.944 124.762 19.6053 125.274 20.096C125.786 20.5867 126.522 20.832 127.482 20.832C128.548 20.832 129.402 20.5013 130.042 19.84C130.703 19.1573 131.034 18.3147 131.034 17.312V10.144C131.034 9.26933 131.354 8.65067 131.994 8.288C132.634 7.904 133.636 7.712 135.002 7.712V21.184ZM146.987 11.168C145.728 11.168 144.704 11.5093 143.915 12.192C143.126 12.8533 142.731 13.6853 142.731 14.688V21.856C142.731 22.7093 142.411 23.328 141.771 23.712C141.131 24.096 140.128 24.288 138.763 24.288V10.784C138.763 9.80267 139.072 9.04533 139.691 8.512C140.331 7.97867 141.291 7.712 142.571 7.712V9.6C142.251 9.96267 141.995 10.3147 141.803 10.656L141.995 10.784C143.339 8.736 145.024 7.712 147.051 7.712C147.968 7.712 148.662 7.95733 149.131 8.448C149.6 8.91733 149.835 9.51467 149.835 10.24C149.835 10.7947 149.686 11.264 149.387 11.648C148.811 11.328 148.011 11.168 146.987 11.168ZM158.114 24.288C156.791 24.288 155.586 24.032 154.498 23.52C153.41 22.9867 152.546 22.272 151.906 21.376C151.266 20.4587 150.946 19.4347 150.946 18.304V14.048C150.946 12.8533 151.277 11.776 151.938 10.816C152.599 9.856 153.474 9.09867 154.562 8.544C155.671 7.98933 156.866 7.712 158.146 7.712C159.405 7.712 160.557 7.97867 161.602 8.512C162.669 9.024 163.511 9.74933 164.13 10.688C164.749 11.6053 165.058 12.6613 165.058 13.856V15.648C165.058 16.1173 164.877 16.512 164.514 16.832C164.173 17.152 163.735 17.312 163.202 17.312H154.818V18.016C154.818 18.9333 155.095 19.68 155.65 20.256C156.205 20.832 157.037 21.12 158.146 21.12C159.213 21.12 160.002 20.8853 160.514 20.416C161.047 19.9467 161.314 19.3387 161.314 18.592C161.698 18.5493 161.965 18.528 162.114 18.528C162.903 18.528 163.522 18.7093 163.97 19.072C164.418 19.4133 164.642 19.904 164.642 20.544C164.642 21.1627 164.354 21.76 163.778 22.336C163.202 22.912 162.413 23.3813 161.41 23.744C160.407 24.1067 159.309 24.288 158.114 24.288ZM161.442 14.464V13.856C161.442 12.96 161.133 12.2347 160.514 11.68C159.895 11.1253 159.095 10.848 158.114 10.848C157.133 10.848 156.333 11.1253 155.714 11.68C155.117 12.2133 154.818 12.9387 154.818 13.856V14.464H161.442ZM185.188 24.288C183.268 24.288 181.593 24.0533 180.164 23.584C178.735 23.1147 177.636 22.4533 176.868 21.6C176.121 20.7253 175.748 19.712 175.748 18.56C175.748 16.8107 176.932 15.936 179.3 15.936C179.385 17.5573 179.929 18.784 180.932 19.616C181.956 20.448 183.385 20.864 185.22 20.864C186.735 20.864 187.908 20.608 188.74 20.096C189.572 19.5627 189.988 18.8267 189.988 17.888C189.988 17.2693 189.828 16.768 189.508 16.384C189.188 15.9787 188.644 15.6267 187.876 15.328C187.108 15.008 185.988 14.688 184.516 14.368C182.425 13.8773 180.772 13.3333 179.556 12.736C178.361 12.1387 177.497 11.424 176.964 10.592C176.431 9.73867 176.164 8.68267 176.164 7.424C176.164 6.208 176.516 5.14133 177.22 4.224C177.945 3.30667 178.959 2.592 180.26 2.08C181.583 1.568 183.097 1.312 184.804 1.312C186.447 1.312 187.908 1.536 189.188 1.984C190.489 2.41067 191.503 3.01867 192.228 3.808C192.975 4.59733 193.348 5.504 193.348 6.528C193.348 8.10667 192.207 8.928 189.924 8.992C189.796 7.52 189.327 6.44267 188.516 5.76C187.705 5.07733 186.468 4.736 184.804 4.736C183.375 4.736 182.276 4.97066 181.508 5.44C180.74 5.90933 180.356 6.57067 180.356 7.424C180.356 8.02133 180.505 8.52267 180.804 8.928C181.103 9.312 181.604 9.65333 182.308 9.952C183.012 10.2293 184.015 10.5173 185.316 10.816C187.513 11.3067 189.252 11.8613 190.532 12.48C191.812 13.0773 192.74 13.8133 193.316 14.688C193.892 15.5413 194.18 16.5973 194.18 17.856C194.18 19.1573 193.807 20.2987 193.06 21.28C192.335 22.24 191.289 22.9867 189.924 23.52C188.58 24.032 187.001 24.288 185.188 24.288ZM204.239 24.288C202.916 24.288 201.711 24.032 200.623 23.52C199.535 22.9867 198.671 22.272 198.031 21.376C197.391 20.4587 197.071 19.4347 197.071 18.304V14.048C197.071 12.8533 197.402 11.776 198.063 10.816C198.724 9.856 199.599 9.09867 200.687 8.544C201.796 7.98933 202.991 7.712 204.271 7.712C205.53 7.712 206.682 7.97867 207.727 8.512C208.794 9.024 209.636 9.74933 210.255 10.688C210.874 11.6053 211.183 12.6613 211.183 13.856V15.648C211.183 16.1173 211.002 16.512 210.639 16.832C210.298 17.152 209.86 17.312 209.327 17.312H200.943V18.016C200.943 18.9333 201.22 19.68 201.775 20.256C202.33 20.832 203.162 21.12 204.271 21.12C205.338 21.12 206.127 20.8853 206.639 20.416C207.172 19.9467 207.439 19.3387 207.439 18.592C207.823 18.5493 208.09 18.528 208.239 18.528C209.028 18.528 209.647 18.7093 210.095 19.072C210.543 19.4133 210.767 19.904 210.767 20.544C210.767 21.1627 210.479 21.76 209.903 22.336C209.327 22.912 208.538 23.3813 207.535 23.744C206.532 24.1067 205.434 24.288 204.239 24.288ZM207.567 14.464V13.856C207.567 12.96 207.258 12.2347 206.639 11.68C206.02 11.1253 205.22 10.848 204.239 10.848C203.258 10.848 202.458 11.1253 201.839 11.68C201.242 12.2133 200.943 12.9387 200.943 13.856V14.464H207.567ZM206.383 6.304C205.572 6.34667 205.05 6.368 204.815 6.368C204.132 6.368 203.62 6.304 203.279 6.176C202.938 6.048 202.628 5.824 202.351 5.504L198.031 0.383999H200.815C202.287 0.383999 203.29 0.842665 203.823 1.76L206.383 6.304ZM221.143 24.288C219.756 24.288 218.53 24.0427 217.463 23.552C216.396 23.04 215.564 22.336 214.967 21.44C214.37 20.544 214.071 19.5307 214.071 18.4V13.92C214.071 12.704 214.37 11.6267 214.967 10.688C215.564 9.74933 216.396 9.024 217.463 8.512C218.53 7.97867 219.746 7.712 221.111 7.712C222.391 7.712 223.522 7.89333 224.503 8.256C225.506 8.61867 226.284 9.13067 226.839 9.792C227.394 10.432 227.671 11.1787 227.671 12.032C227.671 12.6933 227.415 13.2267 226.903 13.632C226.391 14.0373 225.719 14.24 224.887 14.24C224.652 14.24 224.482 14.2293 224.375 14.208C224.375 13.2907 224.076 12.5547 223.479 12C222.903 11.4453 222.146 11.168 221.207 11.168C220.268 11.168 219.5 11.4347 218.903 11.968C218.327 12.5013 218.039 13.2053 218.039 14.08V18.112C218.039 18.9227 218.338 19.584 218.935 20.096C219.532 20.5867 220.3 20.832 221.239 20.832C222.178 20.832 222.946 20.5547 223.543 20C224.14 19.424 224.439 18.6987 224.439 17.824C224.567 17.8027 224.748 17.792 224.983 17.792C225.815 17.792 226.487 17.984 226.999 18.368C227.511 18.752 227.767 19.2747 227.767 19.936C227.767 20.7893 227.479 21.5467 226.903 22.208C226.348 22.848 225.57 23.36 224.567 23.744C223.564 24.1067 222.423 24.288 221.143 24.288ZM230.826 4.384C230.826 3.40267 231.167 2.64533 231.85 2.112C232.532 1.57867 233.514 1.312 234.794 1.312V9.632C234.516 9.93067 234.26 10.272 234.026 10.656L234.218 10.784C235.69 8.736 237.567 7.712 239.85 7.712C240.938 7.712 241.898 7.95733 242.73 8.448C243.562 8.93867 244.202 9.61067 244.65 10.464C245.119 11.3173 245.354 12.2773 245.354 13.344V21.856C245.354 22.7093 245.023 23.328 244.362 23.712C243.7 24.096 242.698 24.288 241.354 24.288V13.92C241.354 13.1093 241.108 12.448 240.618 11.936C240.148 11.424 239.455 11.168 238.538 11.168C237.45 11.168 236.554 11.5093 235.85 12.192C235.146 12.8533 234.794 13.6853 234.794 14.688V21.856C234.794 22.7093 234.463 23.328 233.802 23.712C233.14 24.096 232.148 24.288 230.826 24.288V4.384ZM255.77 24.288C254.448 24.288 253.242 24.032 252.154 23.52C251.066 22.9867 250.202 22.272 249.562 21.376C248.922 20.4587 248.602 19.4347 248.602 18.304V14.048C248.602 12.8533 248.933 11.776 249.594 10.816C250.256 9.856 251.13 9.09867 252.218 8.544C253.328 7.98933 254.522 7.712 255.802 7.712C257.061 7.712 258.213 7.97867 259.258 8.512C260.325 9.024 261.168 9.74933 261.786 10.688C262.405 11.6053 262.714 12.6613 262.714 13.856V15.648C262.714 16.1173 262.533 16.512 262.17 16.832C261.829 17.152 261.392 17.312 260.858 17.312H252.474V18.016C252.474 18.9333 252.752 19.68 253.306 20.256C253.861 20.832 254.693 21.12 255.802 21.12C256.869 21.12 257.658 20.8853 258.17 20.416C258.704 19.9467 258.97 19.3387 258.97 18.592C259.354 18.5493 259.621 18.528 259.77 18.528C260.56 18.528 261.178 18.7093 261.626 19.072C262.074 19.4133 262.298 19.904 262.298 20.544C262.298 21.1627 262.01 21.76 261.434 22.336C260.858 22.912 260.069 23.3813 259.066 23.744C258.064 24.1067 256.965 24.288 255.77 24.288ZM259.098 14.464V13.856C259.098 12.96 258.789 12.2347 258.17 11.68C257.552 11.1253 256.752 10.848 255.77 10.848C254.789 10.848 253.989 11.1253 253.37 11.68C252.773 12.2133 252.474 12.9387 252.474 13.856V14.464H259.098ZM265.922 28.416C266.712 27.6907 267.309 26.9333 267.714 26.144C268.141 25.3547 268.354 24.672 268.354 24.096C268.162 24.224 267.896 24.288 267.554 24.288C266.85 24.288 266.264 24.0427 265.794 23.552C265.346 23.0613 265.122 22.4213 265.122 21.632C265.122 20.8213 265.389 20.16 265.922 19.648C266.456 19.1147 267.149 18.848 268.002 18.848C268.877 18.848 269.581 19.136 270.114 19.712C270.669 20.2667 270.946 20.9387 270.946 21.728C270.946 24.544 270.018 26.7307 268.162 28.288C267.885 28.544 267.448 28.672 266.85 28.672C266.402 28.672 266.093 28.5867 265.922 28.416ZM284.503 24C283.884 24 283.351 23.776 282.903 23.328C282.476 22.88 282.263 22.3467 282.263 21.728V4.48C282.263 3.41333 282.615 2.624 283.319 2.112C284.023 1.57867 285.1 1.312 286.551 1.312V20.288H295.191C296.194 20.288 296.951 20.608 297.463 21.248C297.975 21.8667 298.231 22.784 298.231 24H284.503ZM306.552 24.288C305.229 24.288 304.024 24.032 302.936 23.52C301.848 22.9867 300.984 22.272 300.344 21.376C299.704 20.4587 299.384 19.4347 299.384 18.304V14.048C299.384 12.8533 299.714 11.776 300.376 10.816C301.037 9.856 301.912 9.09867 303 8.544C304.109 7.98933 305.304 7.712 306.584 7.712C307.842 7.712 308.994 7.97867 310.04 8.512C311.106 9.024 311.949 9.74933 312.568 10.688C313.186 11.6053 313.496 12.6613 313.496 13.856V15.648C313.496 16.1173 313.314 16.512 312.952 16.832C312.61 17.152 312.173 17.312 311.64 17.312H303.256V18.016C303.256 18.9333 303.533 19.68 304.088 20.256C304.642 20.832 305.474 21.12 306.584 21.12C307.65 21.12 308.44 20.8853 308.952 20.416C309.485 19.9467 309.752 19.3387 309.752 18.592C310.136 18.5493 310.402 18.528 310.552 18.528C311.341 18.528 311.96 18.7093 312.408 19.072C312.856 19.4133 313.08 19.904 313.08 20.544C313.08 21.1627 312.792 21.76 312.216 22.336C311.64 22.912 310.85 23.3813 309.848 23.744C308.845 24.1067 307.746 24.288 306.552 24.288ZM309.88 14.464V13.856C309.88 12.96 309.57 12.2347 308.952 11.68C308.333 11.1253 307.533 10.848 306.552 10.848C305.57 10.848 304.77 11.1253 304.152 11.68C303.554 12.2133 303.256 12.9387 303.256 13.856V14.464H309.88ZM324.826 10.464C324.826 9.67467 325.135 9.024 325.754 8.512C326.372 7.97867 327.29 7.712 328.506 7.712V9.44C328.143 9.93067 327.94 10.2187 327.898 10.304L328.026 10.432C328.708 9.536 329.455 8.864 330.266 8.416C331.098 7.94667 332.122 7.712 333.338 7.712C334.511 7.712 335.546 7.95733 336.442 8.448C337.359 8.91733 338.074 9.58933 338.586 10.464C339.098 11.3387 339.354 12.3413 339.354 13.472V18.528C339.354 19.68 339.066 20.6933 338.49 21.568C337.935 22.4427 337.167 23.1147 336.186 23.584C335.204 24.0533 334.095 24.288 332.858 24.288C332.068 24.288 331.247 24.128 330.394 23.808C329.562 23.4667 328.858 23.008 328.282 22.432L328.154 22.592C328.303 22.8053 328.538 23.0293 328.858 23.264V28C328.858 29.792 327.514 30.688 324.826 30.688V10.464ZM332.09 20.832C333.135 20.832 333.946 20.608 334.522 20.16C335.098 19.712 335.386 19.0827 335.386 18.272V13.728C335.386 12.896 335.098 12.2667 334.522 11.84C333.967 11.392 333.156 11.168 332.09 11.168C331.13 11.168 330.34 11.4027 329.722 11.872C329.103 12.32 328.794 12.8853 328.794 13.568V18.432C328.794 19.0933 329.092 19.6587 329.69 20.128C330.308 20.5973 331.108 20.832 332.09 20.832ZM345.2 6.208C344.432 6.208 343.792 5.984 343.28 5.536C342.79 5.06667 342.544 4.46933 342.544 3.744C342.544 3.04 342.79 2.464 343.28 2.016C343.792 1.54667 344.432 1.312 345.2 1.312C345.968 1.312 346.598 1.54667 347.088 2.016C347.6 2.464 347.856 3.04 347.856 3.744C347.856 4.46933 347.6 5.06667 347.088 5.536C346.598 5.984 345.968 6.208 345.2 6.208ZM343.184 10.144C343.184 9.26933 343.515 8.65067 344.176 8.288C344.838 7.904 345.84 7.712 347.184 7.712V21.856C347.184 22.7093 346.854 23.328 346.192 23.712C345.531 24.096 344.528 24.288 343.184 24.288V10.144ZM353.43 24.288C352.427 24.288 351.606 23.9253 350.966 23.2L358.614 12.48L351.318 2.112C351.553 1.87733 351.873 1.68533 352.278 1.536C352.705 1.38667 353.142 1.312 353.59 1.312C354.209 1.312 354.785 1.41866 355.318 1.632C355.851 1.824 356.225 2.09067 356.438 2.432L360.726 8.96L359.862 10.208L360.182 10.432L365.558 2.432C365.771 2.09067 366.145 1.824 366.678 1.632C367.211 1.41866 367.787 1.312 368.406 1.312C368.854 1.312 369.281 1.38667 369.686 1.536C370.113 1.68533 370.443 1.87733 370.678 2.112L363.382 12.48L371.03 23.2C370.369 23.9253 369.547 24.288 368.566 24.288C367.478 24.288 366.657 23.8933 366.102 23.104L360.982 15.584L355.894 23.104C355.638 23.4667 355.286 23.7547 354.838 23.968C354.411 24.1813 353.942 24.288 353.43 24.288ZM380.302 24.288C378.979 24.288 377.774 24.032 376.686 23.52C375.598 22.9867 374.734 22.272 374.094 21.376C373.454 20.4587 373.134 19.4347 373.134 18.304V14.048C373.134 12.8533 373.464 11.776 374.126 10.816C374.787 9.856 375.662 9.09867 376.75 8.544C377.859 7.98933 379.054 7.712 380.334 7.712C381.592 7.712 382.744 7.97867 383.79 8.512C384.856 9.024 385.699 9.74933 386.318 10.688C386.936 11.6053 387.246 12.6613 387.246 13.856V15.648C387.246 16.1173 387.064 16.512 386.702 16.832C386.36 17.152 385.923 17.312 385.39 17.312H377.006V18.016C377.006 18.9333 377.283 19.68 377.838 20.256C378.392 20.832 379.224 21.12 380.334 21.12C381.4 21.12 382.19 20.8853 382.702 20.416C383.235 19.9467 383.502 19.3387 383.502 18.592C383.886 18.5493 384.152 18.528 384.302 18.528C385.091 18.528 385.71 18.7093 386.158 19.072C386.606 19.4133 386.83 19.904 386.83 20.544C386.83 21.1627 386.542 21.76 385.966 22.336C385.39 22.912 384.6 23.3813 383.598 23.744C382.595 24.1067 381.496 24.288 380.302 24.288ZM383.63 14.464V13.856C383.63 12.96 383.32 12.2347 382.702 11.68C382.083 11.1253 381.283 10.848 380.302 10.848C379.32 10.848 378.52 11.1253 377.902 11.68C377.304 12.2133 377.006 12.9387 377.006 13.856V14.464H383.63ZM395.574 24.288C393.803 24.288 392.459 23.7867 391.542 22.784C390.646 21.76 390.198 20.4693 390.198 18.912V3.744C390.198 2.86933 390.518 2.25067 391.158 1.888C391.819 1.504 392.832 1.312 394.198 1.312V18.752C394.198 19.4773 394.358 20.0107 394.678 20.352C394.998 20.672 395.51 20.832 396.214 20.832C397.003 20.832 397.792 20.6293 398.582 20.224C398.795 20.416 398.955 20.6613 399.062 20.96C399.19 21.2373 399.254 21.5253 399.254 21.824C399.254 22.464 398.934 23.04 398.294 23.552C397.654 24.0427 396.747 24.288 395.574 24.288ZM410.263 4.704C410.263 3.65867 410.615 2.83733 411.319 2.24C412.023 1.62133 412.972 1.312 414.167 1.312L424.983 18.208L425.303 17.952L423.991 15.776V1.312C425.378 1.312 426.423 1.57867 427.127 2.112C427.852 2.64533 428.215 3.43467 428.215 4.48V21.376C428.215 22.1653 427.874 22.848 427.191 23.424C426.53 24 425.762 24.288 424.887 24.288L413.495 6.464L413.175 6.752L414.487 8.928V21.12C414.487 22.1653 414.124 22.9547 413.399 23.488C412.695 24.0213 411.65 24.288 410.263 24.288V4.704ZM437.826 24.288C436.439 24.288 435.181 24.0427 434.05 23.552C432.941 23.04 432.066 22.336 431.426 21.44C430.786 20.544 430.466 19.5307 430.466 18.4V13.888C430.466 12.736 430.775 11.6907 431.394 10.752C432.034 9.81333 432.909 9.07733 434.018 8.544C435.127 7.98933 436.397 7.712 437.826 7.712C439.255 7.712 440.525 7.98933 441.634 8.544C442.765 9.07733 443.639 9.81333 444.258 10.752C444.898 11.6907 445.218 12.736 445.218 13.888V18.4C445.218 19.5307 444.887 20.544 444.226 21.44C443.586 22.336 442.701 23.04 441.57 23.552C440.461 24.0427 439.213 24.288 437.826 24.288ZM437.826 20.864C438.893 20.864 439.725 20.6187 440.322 20.128C440.941 19.6373 441.25 18.976 441.25 18.144V14.08C441.25 13.2053 440.941 12.5013 440.322 11.968C439.725 11.4133 438.893 11.136 437.826 11.136C436.781 11.136 435.949 11.4133 435.33 11.968C434.711 12.5013 434.402 13.2053 434.402 14.08V18.144C434.402 18.976 434.711 19.6373 435.33 20.128C435.949 20.6187 436.781 20.864 437.826 20.864ZM447.732 10.784C447.732 9.80267 448.041 9.04533 448.66 8.512C449.3 7.97867 450.26 7.712 451.54 7.712V9.632C451.284 9.93067 451.028 10.272 450.772 10.656L450.964 10.784C451.604 9.824 452.425 9.07733 453.428 8.544C454.43 7.98933 455.54 7.712 456.756 7.712C457.844 7.712 458.804 7.95733 459.636 8.448C460.468 8.93867 461.108 9.61067 461.556 10.464C462.025 11.3173 462.26 12.2773 462.26 13.344V21.856C462.26 22.7093 461.929 23.328 461.268 23.712C460.606 24.096 459.604 24.288 458.26 24.288V13.92C458.26 13.1093 458.014 12.448 457.524 11.936C457.054 11.424 456.361 11.168 455.444 11.168C454.356 11.168 453.46 11.5093 452.756 12.192C452.052 12.8533 451.7 13.6853 451.7 14.688V21.856C451.7 22.7093 451.38 23.328 450.74 23.712C450.1 24.096 449.097 24.288 447.732 24.288V10.784ZM475.036 4.32C475.036 3.296 475.398 2.53867 476.124 2.048C476.87 1.55733 477.894 1.312 479.196 1.312V14.048C479.196 15.072 478.822 15.8507 478.076 16.384C477.35 16.9173 476.337 17.184 475.036 17.184V4.32ZM476.988 24.288C476.134 24.288 475.43 24.0427 474.876 23.552C474.342 23.04 474.076 22.3893 474.076 21.6C474.076 20.8107 474.342 20.16 474.876 19.648C475.43 19.136 476.134 18.88 476.988 18.88C477.841 18.88 478.534 19.136 479.068 19.648C479.622 20.16 479.9 20.8107 479.9 21.6C479.9 22.3893 479.622 23.04 479.068 23.552C478.534 24.0427 477.841 24.288 476.988 24.288Z" fill="white"/>
</svg>
