<svg width="122" height="123" viewBox="0 0 122 123" fill="none" xmlns="http://www.w3.org/2000/svg">
<g clip-path="url(#clip0_2_2)">
<path d="M122 0H0V123H122V0Z" fill="white"/>
<path d="M55.6357 81.0939C55.6357 81.0939 58.3485 79.8073 59.3613 78.9124C60.3741 78.0172 61.6331 75.7934 61.6331 75.7934C61.6331 75.7934 75.4635 85.8637 84.4814 84.4272C86.5592 84.0962 90.6078 82.7037 90.8659 80.2504C91.5709 73.5512 81.8168 71.8392 83.9476 68.4419C85.2481 66.3683 89.2882 69.4546 89.2882 69.4546L106.046 77.7648C106.046 77.7648 100.257 92.1524 86.2073 92.729C68.925 93.4383 55.6357 81.0939 55.6357 81.0939Z" fill="white"/>
<path fill-rule="evenodd" clip-rule="evenodd" d="M42.3495 24.7485C42.1922 24.6863 41.3476 23.6435 40.2752 23.4537C39.788 23.3675 40.2303 23.9931 39.694 23.9987C38.0968 24.0154 35.5011 23.713 35.0202 23.9987C34.6629 24.2104 35.4498 24.9501 35.0202 24.984C30.9663 25.3043 24.7818 29.3853 23.44 31.3651C23.013 31.9952 26.4666 30.9261 25.9163 31.2377C25.2988 31.5873 24.6138 33.8764 24.2042 35.6445C23.9207 36.862 23.7422 38.4289 23.6791 40.1333C23.6267 41.6049 23.6477 41.8485 23.8577 42.653C24.0991 43.5529 24.2881 43.8176 24.6138 43.6907C24.7293 43.6482 24.7818 43.4894 24.7818 43.1931C24.7818 42.96 24.9077 42.2614 25.0654 41.6367L25.3383 40.5145L25.4538 40.9804C25.6009 41.5203 26.4619 43.1931 27.2389 44.4105C27.2809 44.4751 27.4613 44.3929 27.6238 43.9967C27.772 43.6356 27.7118 43.0588 27.9636 42.4407C28.537 41.0324 29.6626 39.2013 30.9663 37.7358C32.8929 35.5697 33.532 33.063 35.3381 31.0507C38.7084 27.2954 42.9384 24.9815 42.3495 24.7485Z" fill="white"/>
<path fill-rule="evenodd" clip-rule="evenodd" d="M25.9642 31.7485C25.4235 32.1869 24.6211 35.7421 24.6072 35.8016C24.3237 37.019 24.0504 41.2471 24.3297 42.0476C24.6092 42.848 25.3915 39.9625 25.3915 39.9625C25.3915 39.9625 26.5737 43.0578 27.6185 43.9065C27.6631 43.9427 26.3767 40.0769 25.9642 37.82C25.4196 34.8409 26.2718 31.4991 25.9642 31.7485Z" fill="#E7EAEE"/>
<path fill-rule="evenodd" clip-rule="evenodd" d="M46.1153 94.0132C47.1233 93.791 48.8243 93.0168 49.4757 92.7521C50.1268 92.4872 52.1114 89.662 52.8255 86.4753C53.34 84.125 53.6025 80.7796 53.3084 80.2184C53.265 80.1388 53.1062 78.6174 53.529 79.1141C54.4689 80.2184 55.5846 81.9518 59.1049 78.8457C60.0636 77.9996 61.3345 76.9077 60.9999 75.9425C60.0636 73.2418 56.0053 67.8034 55.3866 67.3916C54.6468 66.8989 50.9079 67.3175 45.3436 65.6617C39.0331 63.7839 36.4056 58.2543 33.9361 58.9741C31.9391 59.5563 27.1542 63.1335 25.9534 65.3988C20.2841 76.0934 27.1542 83.5874 28.7187 85.7397L30.2379 86.4012L30.2903 87.767L30.3638 88.6245C30.5004 90.2655 30.5528 90.4137 31.2879 90.9643C33.1255 92.3722 36.7485 93.6851 40.0247 94.151C41.5474 94.3627 44.8551 94.2886 46.1153 94.0132Z" fill="white"/>
<path fill-rule="evenodd" clip-rule="evenodd" d="M30.8355 87.267L30.9088 88.1244C31.0455 89.7655 31.0978 89.9136 31.8329 90.4642C32.9171 91.2948 34.6225 92.0923 36.5114 92.7024C37.8244 93.1264 39.2263 93.4599 40.5698 93.6508C42.0925 93.8626 45.4003 93.7884 46.6603 93.5132C47.2832 93.3771 42.1598 89.3191 39.1415 90.4642C36.8237 91.3435 31.3607 84.6361 33.5819 82.8837C36.0736 80.9179 31.5078 73.1646 31.3607 71.4813C31.2137 69.798 30.6347 69.3959 30.6178 69.4549C30.6009 69.514 30.6009 69.7154 30.6464 70.2006C30.8423 72.2921 30.8355 87.267 30.8355 87.267Z" fill="#E7EAEE"/>
<path fill-rule="evenodd" clip-rule="evenodd" d="M30.2886 71.0008C30.509 70.9575 30.7226 71.1026 30.7654 71.3249C31.5579 75.4299 34.9103 78.2091 40.9049 79.6623C46.9349 81.1242 51.0424 81.0453 53.2065 79.485C53.3892 79.3532 53.2531 80.4813 53.1194 80.5677C51.7077 81.4804 46.9086 82.8421 41.1814 81.6113C33.8586 80.0377 30.4205 73.83 29.967 71.4817C29.9242 71.2593 30.068 71.0441 30.2886 71.0008Z" fill="#00160A"/>
<path fill-rule="evenodd" clip-rule="evenodd" d="M27.2345 63.5944C27.4296 63.482 34.7026 71.8859 44.6838 73.7881C54.665 75.6904 57.0816 74.4805 57.47 71.8859C57.5035 71.662 57.7108 71.5079 57.9328 71.5417C58.1549 71.5754 58.3078 71.7844 58.2742 72.0082C57.7819 75.2968 53.1634 76.0789 44.547 74.5965C36.0387 73.1326 30.2055 69.6548 27.0836 64.1539C26.972 63.9575 27.0396 63.7069 27.2345 63.5944Z" fill="#00160A"/>
<path fill-rule="evenodd" clip-rule="evenodd" d="M69.1274 63.1284C68.8543 63.0332 68.5604 62.8214 68.3714 62.5779L68.0563 62.1861L69.1694 61.0745C70.8811 59.3806 72.1937 57.6443 73.3278 55.5799C73.7058 54.8917 74.6613 52.5944 74.6613 52.372C74.6613 52.2979 74.777 52.0014 74.9135 51.6944C75.1235 51.2498 75.2809 51.0803 75.7325 50.8263C76.268 50.5086 76.8772 50.4029 77.1396 50.5828C77.6437 50.9216 77.6437 51.9909 77.1396 53.8329C76.5831 55.855 75.8376 57.3056 74.2939 59.3912C74.0523 59.7089 73.6008 60.3334 73.2753 60.7675C72.4037 61.9321 71.8366 62.4933 71.0702 62.9272C70.3141 63.3508 69.8729 63.4036 69.1274 63.1284ZM76.667 62.1756L77.4231 62.5144C77.5799 62.5872 79.3095 63.4251 81.387 64.4316C84.7364 66.0542 88.9903 68.1149 89.0162 68.1149C89.0583 68.1149 89.2553 67.6555 89.2997 67.1197C89.4048 65.9658 89.7933 64.3988 90.2448 63.3084C90.4548 62.8214 90.6229 62.2127 90.6229 62.1599C90.6229 62.1356 90.4522 62.0662 90.1728 61.9526C89.8399 61.8173 89.3532 61.6193 88.8168 61.3604C86.1705 60.0794 80.9935 57.4644 80.3529 57.0726C79.7229 56.7021 79.5968 56.6703 79.5968 56.9138C79.5968 57.2315 78.9564 58.7031 78.4627 59.497C78.2003 59.9311 77.6856 60.7145 77.3182 61.2333L76.667 62.1756ZM88.8377 66.2092C89.1388 66.3852 88.6172 66.6433 88.4913 66.6856C87.7492 66.7492 86.8757 66.6085 86.1599 66.188C85.7858 65.9205 82.8391 64.27 80.8845 63.1753C79.991 62.6748 79.3047 62.2904 79.1664 62.2074C78.7253 61.9427 78.3052 61.6569 78.2317 61.5721C78.0113 61.2862 78.2213 61.1593 78.8407 61.2121C79.2132 61.2439 88.1872 65.8292 88.8377 66.2092ZM46.1513 93.9262C46.9613 93.7474 48.2187 93.2124 49.0194 92.8718C49.2152 92.7885 49.3836 92.7168 49.5116 92.6648C50.1629 92.4 52.1473 89.5749 52.8614 86.3881C53.3759 84.0378 53.6385 80.6924 53.3445 80.1311C53.1672 79.8063 54.2203 80.8964 55.0047 81.7083C55.2425 81.9543 55.4556 82.1749 55.6022 82.3227C60.1806 86.907 66.9957 90.5912 74.0733 92.3168C77.6017 93.1851 80.1115 93.4921 83.4823 93.4921C89.1423 93.4921 93.6052 92.3698 97.6585 89.9031C97.8511 89.7858 98.0315 89.6782 98.2034 89.5756C99.6164 88.7321 100.458 88.2296 102.762 85.6153C105.346 82.6827 107.645 75.8752 108.412 73.5249C108.747 72.4661 109.567 68.2552 109.567 67.2045C109.567 65.9604 109.136 65.3729 108.548 64.7694C107.508 63.7425 106.101 63.372 104.936 63.8166L104.39 64.0283L104.222 63.4673C103.98 62.6202 103.476 61.9427 102.699 61.4345C101.544 60.6617 101.376 60.6087 100.336 60.6087C99.5277 60.6087 99.3071 60.6511 98.7926 60.8946L98.194 61.1698L98.0681 60.7887C97.8265 60.0052 97.0165 58.9132 96.3879 58.5971C95.8305 58.317 94.8655 58.2913 94.1932 58.4172C92.723 58.6924 91.673 59.3806 91.2425 60.3441C91.1164 60.6404 90.9589 60.8734 90.896 60.8734C90.8434 60.8734 88.7748 60.2909 86.307 59.1898C85.8907 59.0035 85.4997 58.8287 85.1325 58.6647C80.7012 56.6844 79.7406 56.2552 79.828 55.7174C79.9013 55.2622 79.8803 55.0081 79.7544 54.6165C79.5339 53.96 79.2819 53.7801 78.5678 53.7801C78.0007 53.7801 78.0007 53.7801 78.0637 53.4943C78.3998 51.8744 78.3893 50.9427 78.0323 50.3499C77.7907 49.9581 77.5072 49.7993 76.856 49.7041C76.478 49.6511 76.2996 49.6829 75.8796 49.9158C75.596 50.064 75.3545 50.1698 75.3335 50.1487C75.3125 50.1275 75.386 49.5453 75.5015 48.8572C76.3625 43.7648 75.6974 39.3771 73.5027 34.7189C73.4817 34.6743 73.4573 34.6216 73.4295 34.5613C72.7622 33.1171 70.0794 27.31 62.4069 24.3798C62.0596 24.2472 61.731 24.1191 61.4151 23.9957C58.8015 22.9758 57.0641 22.2977 52.872 22.3047C48.1732 22.3126 46.5818 22.9824 43.484 24.4117C43.0536 24.6127 42.6756 24.7292 42.644 24.6868C42.6124 24.6339 42.413 24.5069 42.2134 24.401C42.014 24.2952 41.5834 24.0305 41.2683 23.8188C40.3652 23.2046 39.8087 22.9506 39.5252 23.014C39.1997 23.0988 39.1997 23.374 39.5252 23.5011C39.6617 23.5541 39.8193 23.734 39.8822 23.9141C40.0187 24.2952 40.1762 24.3375 40.2707 24.0199C40.3128 23.9034 40.3758 23.8188 40.4073 23.8399C40.4192 23.8459 40.4592 23.8649 40.5202 23.8936C40.6738 23.9661 40.9602 24.1014 41.2683 24.2527C41.6989 24.4646 42.1714 24.6868 42.2975 24.7398C42.5285 24.8244 42.455 24.8881 41.4573 25.4809C37.5615 27.7889 34.3903 31.3779 32.6156 35.4644C32.3425 36.0786 32.1011 36.4596 31.8489 36.6715C31.2084 37.2114 29.9483 38.7464 29.6542 39.3499C29.4968 39.6781 29.1607 40.1863 28.8982 40.4827C28.6462 40.7792 28.3731 41.1603 28.2786 41.3191C28.1946 41.4885 28.1107 41.6049 28.0791 41.5838C28.0582 41.5521 28.0896 41.0332 28.1631 40.4299C28.3207 39.0218 28.3207 38.6511 28.1946 38.6195C28.0056 38.5665 27.7327 39.3076 27.617 40.2286C27.5331 40.7898 27.5121 41.6367 27.5646 42.5048L27.6276 43.8812L26.8821 42.6637C26.6257 42.2565 26.3733 41.8494 26.1938 41.5603V41.5601L26.1937 41.56L26.1934 41.5593L26.193 41.5592V41.5588L26.1929 41.5587L26.1925 41.5582C26.0788 41.3747 25.9946 41.239 25.958 41.1815C25.6849 40.7792 25.5274 40.1757 25.6429 39.9746C25.7058 39.8582 25.6954 39.8052 25.5903 39.8052C25.3699 39.8052 24.9394 40.5145 24.6558 41.3297C24.5193 41.7109 24.3827 42.0284 24.3407 42.0284C24.1833 42.0284 24.2568 38.2383 24.4248 37.0208C24.7713 34.6175 25.6849 31.6531 26.0944 31.6531C26.1784 31.6531 26.2519 31.6108 26.2519 31.5473C26.2519 31.3567 25.979 31.4309 25.7584 31.6744C25.2649 32.2143 24.6139 33.8764 24.2043 35.6445C23.9207 36.862 23.7423 38.4289 23.6792 40.1333C23.6268 41.6049 23.6478 41.8485 23.8578 42.653C24.0993 43.5529 24.2884 43.8176 24.6139 43.6907C24.7294 43.6482 24.7819 43.4894 24.7819 43.1931C24.7819 42.9601 24.9078 42.2614 25.0654 41.6367L25.3384 40.5145L25.4539 40.9804C25.6009 41.5203 26.4619 43.1931 27.239 44.4105C27.7746 45.2364 27.785 45.2892 27.9637 46.5808C28.0582 47.3113 28.3521 49.0882 29.0346 51.8215C29.6378 54.2365 33.0281 56.6321 33.8748 57.2303L33.8753 57.2307C33.9865 57.3092 34.0537 57.3568 34.0646 57.3691C34.1697 57.4855 34.3168 57.549 34.4007 57.5173C34.4952 57.4855 34.5477 57.5278 34.5477 57.6443C34.5477 57.7502 34.6213 57.8878 34.7052 57.9513C34.8103 58.0254 34.8838 58.3113 34.9048 58.8088C34.9573 59.8042 35.6923 61.7097 36.2593 62.3344C36.627 62.7366 37.3934 62.9061 38.244 62.7578C38.8007 62.6732 38.9581 62.6097 38.9056 62.4826C38.8742 62.398 39.0736 62.5038 39.3467 62.7155C42.5389 65.1717 45.7732 66.6433 49.4065 67.2785C50.8138 67.522 53.1449 67.6596 54.4155 67.5643C55.5392 67.4904 55.5392 67.4904 55.4867 67.7126C55.4132 68.0091 55.5077 68.189 57.0512 70.8251C58.2798 72.9109 58.3849 73.0485 59.75 74.4566C62.6483 77.4739 65.809 79.8136 69.39 81.624C72.7607 83.3178 78.1424 84.7259 83.0623 85.1707C87.982 85.6153 91.5154 81.0628 91.505 79.8983C91.484 78.2996 91.2634 77.2515 90.7279 76.2352C90.2028 75.2505 89.8564 74.9118 88.2811 73.8531C86.5276 72.678 85.446 71.7145 84.7319 70.6875C84.2803 70.0417 84.1123 69.3112 84.1123 68.9194C84.1123 68.6654 84.4378 68.0937 84.9209 67.9773C85.3619 67.8608 85.446 67.8715 85.9395 68.1149C86.2335 68.2526 87.0001 68.6124 87.6301 68.9194C88.2707 69.216 88.8903 69.5125 89.0162 69.5759C89.3877 69.6799 89.5449 70.4132 89.6299 70.8105C89.649 70.8993 89.6644 70.9713 89.6778 71.0157C89.8248 71.5662 90.5205 72.2772 90.9695 72.5191C91.7576 72.9442 93.6999 73.0009 94.2354 72.4187C94.372 72.2705 94.8245 72.0883 94.9177 72.1434C95.0111 72.1986 95.3483 72.6567 95.3483 73.0273C95.3589 73.6625 95.6844 74.2449 96.3773 74.8271C97.6901 75.9282 98.7087 76.1928 99.7377 75.7058C100.273 75.4517 100.712 75.3525 100.712 75.3525C100.712 75.3525 101.15 75.9157 101.176 76.1081C101.383 77.6123 103.591 78.2428 104.18 78.3065C104.314 78.3201 104.577 78.2619 104.843 78.2028C105.199 78.1239 105.563 78.0433 105.639 78.1302C105.789 78.3009 103.129 82.7356 102.762 83.2967C99.2652 88.5903 92.4605 91.8299 84.1333 92.1687C78.7252 92.391 72.0782 90.8664 66.3131 88.0927C62.6273 86.3035 59.3616 84.1119 55.8647 81.0417C55.2557 80.5123 54.552 79.9089 54.3 79.6972C54.0481 79.496 53.4495 78.8078 52.9875 78.1727C52.2104 77.1139 51.7693 76.7327 51.7693 77.0927C51.7693 77.2515 52.2734 78.2255 52.8508 79.189C53.082 79.5701 53.2289 79.8348 53.1765 79.7925C53.124 79.75 52.9559 80.5123 52.7985 81.4863C52.2838 84.6095 51.4334 87.6904 50.5722 89.6066C50.0997 90.6442 49.1936 91.4189 48.9205 91.6307C47.9124 92.4036 46.4034 92.7509 44.3136 92.9627C41.6673 93.2274 37.7715 92.6345 34.7997 91.5122C34.0123 91.2159 31.9854 90.3583 31.8489 90.2631C31.8408 90.2547 31.7943 89.9501 31.7294 89.5251C31.711 89.4052 31.6913 89.2758 31.6705 89.1408C31.2925 86.5258 30.7674 76.4575 30.7674 71.7991C30.7674 69.8723 30.7464 69.4488 30.6203 69.4488C30.3578 69.4488 30.2529 69.703 30.1374 70.6134C29.8748 72.6885 29.9274 83.5191 30.2109 85.7952L30.2738 86.3141L29.9168 86.1129C29.3707 85.7952 27.2915 83.6673 26.567 82.6827C25.9536 81.841 25.589 80.7629 25.3163 79.9563C25.2528 79.7687 25.1944 79.5958 25.1388 79.444C23.6162 75.188 24.1517 70.4123 26.2519 66.1139C28.0372 62.4508 30.2319 60.4182 33.4452 59.4335C33.9701 59.2748 34.4323 59.1054 34.4848 59.0631C34.6842 58.8725 33.4031 58.9678 32.6995 59.19C30.4103 59.8994 28.0162 61.8368 26.3886 64.3142C24.0993 67.7867 23.0702 72.9109 23.7947 77.2833C23.9627 78.3208 24.6453 80.5653 24.8343 80.724C24.851 80.7409 24.9374 80.9236 25.068 81.1999C25.4293 81.9638 26.1288 83.4433 26.6299 84.1119C27.239 84.9483 29.0768 86.7692 29.8433 87.3304L30.3264 87.6797L30.3999 88.5373C30.5364 90.1783 30.5889 90.3265 31.3239 90.8771C33.1617 92.2852 36.7844 93.5978 40.0607 94.0638C41.5834 94.2755 44.8912 94.2014 46.1513 93.9262ZM81.6446 83.9848C75.5435 83.4449 68.1718 80.5121 62.8373 75.981C60.5902 74.0646 57.6708 70.3382 56.5157 68.2738C56.2742 67.8502 56.0957 67.6491 55.8857 67.5961C55.6651 67.5327 55.8542 67.469 56.7573 67.3209C60.569 66.6645 64.2759 65.0658 67.2688 62.7896L67.7098 62.4615L67.8359 62.7685C68.1194 63.4566 69.2114 64.1554 70.02 64.1554C70.3455 64.1554 71.4376 63.6578 72.0992 63.2026L72.5507 62.8956L72.9182 63.266C73.2543 63.6049 73.3172 63.626 73.9474 63.626C74.6719 63.626 75.5435 63.2979 76.0266 62.8319L76.289 62.5886L77.0347 63.0861C77.4337 63.372 78.5468 63.9965 79.5023 64.4941C80.9305 65.2352 82.4427 66.0927 83.8813 66.9821L84.1123 67.1304L83.8917 67.4267C83.6607 67.7444 83.2305 68.3479 83.2305 69.2689C83.2305 70.3064 84.3005 72.1706 86.3489 73.4508C87.9584 74.4566 90.7279 76.4349 90.6229 79.3266C90.6102 79.6759 90.2238 80.5441 89.7093 81.3275C89.3733 81.8251 88.4387 82.5662 87.5881 83.0003C86.1389 83.7308 83.5872 84.1542 81.6446 83.9848ZM25.6535 36.4596C25.937 36.5232 26.126 36.6185 26.0839 36.6608C25.9474 36.7984 25.2229 36.7349 25.0548 36.5655C24.7923 36.3115 24.8553 36.1314 25.2229 36.0573C25.4119 36.0256 25.6954 35.8667 25.8529 35.708C26.0105 35.5492 26.147 35.4751 26.147 35.5281C26.147 35.6657 25.6219 36.1526 25.3594 36.2585C25.1913 36.3326 25.2439 36.3643 25.6535 36.4596ZM29.8329 36.629C30.1374 36.4596 30.0743 36.3431 29.7174 36.3961C29.3603 36.4491 29.3393 36.4068 29.5703 36.0468C29.6648 35.9092 29.7174 35.708 29.6962 35.6022C29.6648 35.4644 29.5913 35.5281 29.4233 35.8667C29.2972 36.1103 29.1187 36.3115 29.0346 36.3115C28.7723 36.3115 28.7511 36.5232 29.0033 36.6185C29.3288 36.7561 29.5807 36.7561 29.8329 36.629ZM26.1995 30.8485C25.9474 30.8908 25.1599 31.2085 24.4668 31.5578C23.7633 31.8966 23.1647 32.1825 23.1227 32.172C22.0515 32.0555 23.5427 30.2556 26.2519 28.4136C28.8456 26.6455 30.5993 25.7138 32.227 25.2374C33.2456 24.941 34.3903 24.8986 34.7158 25.1421C34.8942 25.2797 34.8313 25.2904 34.0542 25.3009C32.374 25.3009 30.4313 26.1691 27.2705 28.297C25.6325 29.3981 23.7317 30.9756 23.7317 31.2296C23.7317 31.2826 24.0362 31.1767 24.4143 31.0074C25.2229 30.6368 26.0525 30.4462 26.4199 30.531C26.8086 30.6368 26.7245 30.7744 26.1995 30.8485ZM30.2633 31.759C31.2505 31.5578 31.2925 31.5473 31.2925 31.4413C31.2925 31.3885 30.9144 31.3356 30.4419 31.3144L29.5913 31.2826L30.3788 30.3827C30.8093 29.8851 31.3134 29.3876 31.4919 29.2711C31.8805 29.0169 31.9015 28.837 31.5864 28.7311L31.345 28.657L31.6074 28.5617C31.7544 28.5089 32.0276 28.4875 32.2166 28.5194C32.5001 28.5617 32.5631 28.5405 32.5315 28.3923C32.5001 28.2442 32.3846 28.2124 31.8699 28.223C30.3684 28.2442 29.7278 28.6465 30.9039 28.837C31.2293 28.89 31.5025 28.9746 31.5025 29.0276C31.5025 29.0699 31.4499 29.1122 31.387 29.1122C31.1874 29.1122 29.4968 30.838 29.2868 31.2614C28.9613 31.8861 29.1397 31.9814 30.2633 31.759ZM37.194 27.6513C36.8895 27.6725 36.816 27.7254 36.837 27.8735L36.8402 27.8952C36.8519 27.9734 36.8588 28.0185 36.8413 28.0321C36.8178 28.0505 36.7503 28.0119 36.5915 27.9211L36.5638 27.9053C36.3644 27.7994 36.3434 27.7466 36.4589 27.6618C36.5324 27.5983 36.7319 27.5031 36.8895 27.4712L37.1834 27.3971L36.963 27.1642C36.8474 27.0266 36.7844 26.8995 36.816 26.8572C36.8999 26.7726 37.9291 26.889 38.076 27.0055C38.1391 27.0584 38.2336 27.0478 38.2966 26.9843C38.4436 26.8361 38.643 26.9525 38.643 27.1854C38.643 27.3125 38.6117 27.323 38.5171 27.2277C38.433 27.1431 38.3595 27.1431 38.265 27.2172C38.1811 27.2913 38.1181 27.2913 38.0656 27.2065C38.034 27.1537 37.8346 27.1008 37.6246 27.1008C37.4307 27.1008 37.3391 27.1008 37.3204 27.138C37.3036 27.1713 37.3456 27.2347 37.425 27.3548C37.5925 27.6187 37.5826 27.6195 37.1976 27.651L37.194 27.6513ZM35.5978 24.8351C35.5978 24.6975 35.4719 24.454 35.3142 24.2952L35.0203 23.9987L36.5954 24.0622C37.467 24.1046 38.454 24.1999 38.8007 24.2952C39.1471 24.3798 39.5462 24.4433 39.6932 24.4433C39.9138 24.4433 39.8717 24.401 39.4622 24.1788C38.7481 23.8081 37.8346 23.6282 36.0809 23.5011C33.9807 23.3529 32.9201 23.5541 33.1195 24.0835C33.1511 24.1893 33.3191 24.2422 33.5711 24.2422C34.0856 24.2422 34.9258 24.5492 35.2093 24.8351C35.5138 25.1421 35.5978 25.1421 35.5978 24.8351ZM30.4733 52.8696C31.3239 53.9707 32.4476 55.2199 32.9726 55.6433C33.2876 55.8975 33.5607 56.1092 33.5817 56.1092C33.5921 56.1092 33.3611 55.6222 33.0672 55.0293C31.8805 52.6472 31.1874 50.2758 30.8619 47.5443C30.7884 46.9408 30.6729 46.4326 30.5468 46.2209C30.2948 45.7974 30.2948 45.2469 30.5574 44.7281C30.6939 44.4529 30.7674 44.1035 30.7674 43.7223V43.1401L30.2633 43.6695C29.7697 44.1882 29.2972 44.4 29.2972 44.0823C29.2972 43.8494 30.0743 42.7272 30.4838 42.3779C30.8093 42.1025 30.8513 42.0072 30.9564 41.1815C31.0299 40.6839 31.198 39.8052 31.3344 39.2228C31.4815 38.6406 31.5654 38.143 31.5444 38.1219C31.4709 38.0478 29.0033 40.9051 28.6672 41.8166C28.5933 42.0169 28.3942 42.3672 28.2366 42.5789L27.9637 42.9323C27.9637 42.9323 28.0484 43.4273 28.1421 44.0493C28.2368 44.6776 28.2812 45.1096 28.3209 45.4943C28.3737 46.0091 28.418 46.4391 28.5621 47.142C28.7301 48.0101 28.8982 48.7619 28.9401 48.8147C28.9717 48.8783 29.1082 49.3652 29.2448 49.9051C29.5388 51.1015 30.0323 52.2872 30.4733 52.8696ZM73.0862 62.8849L72.8658 62.6625C72.8658 62.6625 76.5258 57.9742 77.1817 56.2468C77.6821 54.9286 77.9767 54.5547 78.3741 54.5547C78.5964 54.5547 78.7778 54.6059 78.8617 54.733C79.0088 54.9552 79.1505 55.2305 78.9614 56.1727C78.6465 57.6973 78.1634 58.7031 76.7142 60.8734C76.3783 61.371 75.9477 61.9216 75.7587 62.1121C75.3177 62.5249 74.3254 62.9484 73.7478 63.0437C73.3803 63.0966 73.2753 63.0755 73.0862 62.8849Z" fill="#00160A"/>
<path d="M102.163 73.2418C103.47 69.653 103.272 68.8884 103.045 68.8136C103.045 68.8136 102.546 69.0995 102.326 69.703C101.916 70.8357 100.514 73.8 99.9895 74.3294C99.3699 74.9541 99.3699 74.9541 98.7397 74.9541C98.1097 74.9541 96.2926 73.9975 96.0452 73.0545C95.6494 71.5459 97.3537 66.3044 97.3956 66.0081L97.1121 65.8068C96.9231 65.9869 94.4645 73.5037 91.2317 71.545C90.8615 71.3209 90.0764 70.264 90.0135 69.703C89.6636 68.0725 91.2691 62.3714 91.5421 61.2004C91.7866 60.1523 93.0588 59.1794 94.6235 59.1794C97.0282 59.1794 96.7051 61.2986 97.7823 62.0455C98.2596 62.3763 99.0441 61.7764 99.2858 61.731C100.641 61.4768 101.16 61.7726 102.153 62.5672C102.919 63.1805 103.486 64.3946 104.111 64.8224C104.457 65.0598 104.825 64.7351 104.946 64.6741C105.44 64.424 106.5 64.6106 106.794 64.8224C107.225 65.0118 108.281 66.0355 108.448 66.6308C109.205 69.3292 106.816 75.3116 105.915 76.4339C104.423 78.2915 100.857 76.8304 102.163 73.2418Z" fill="white"/>
<path fill-rule="evenodd" clip-rule="evenodd" d="M41.7934 63.4086C44.6707 65.2401 47.6376 66.4363 51.0188 66.7647C53.686 67.0187 57.2824 66.6694 59.8655 65.8223C62.0393 65.113 64.9796 63.148 66.9432 61.4858C70.7551 58.2673 73.1598 53.2401 74.21 47.9043C74.3569 47.1526 74.5812 45.2631 74.5706 43.3893C74.5706 41.2082 73.6187 35.2485 70.7341 31.812C64.7848 24.7244 55.0052 21.5315 46.7863 24.2596C43.8216 25.2436 40.6649 27.0267 38.2811 29.3558C35.2778 32.3096 33.0621 36.3327 32.18 40.4404C31.2561 44.7811 32.458 49.9688 34.5478 54.2247C36.2174 57.6127 38.9687 61.5982 41.7934 63.4086ZM69.831 50.6146C67.8569 56.5962 62.7114 61.064 56.2428 62.4192C55.2557 62.6202 54.573 62.6944 53.1869 62.7155C52.2105 62.7473 51.2338 62.7367 51.0342 62.7155C46.5083 62.165 43.064 60.4817 39.8927 57.2843C38.5066 55.8764 37.9186 55.1141 37.0576 53.6107C35.7029 51.2286 34.9784 48.7936 34.7578 45.8609C34.0017 35.8139 41.1319 27.4396 51.1709 26.5714C55.1087 26.2326 59.4771 27.4501 62.7953 29.8215C64.024 30.7003 66.2502 32.9236 66.9432 33.9611C67.2267 34.374 69.978 38.4289 70.461 40.758C71.0806 43.786 70.839 47.576 69.831 50.6146Z" fill="white"/>
<path fill-rule="evenodd" clip-rule="evenodd" d="M74.5742 43.3892C74.5742 50.4953 71.2401 58.2642 66.9373 61.5821C64.8844 63.165 62.2016 65.0818 59.8653 65.8223C56.4417 66.9075 51.0186 66.7646 51.0186 66.7646C51.0186 66.7646 56.5512 66.0189 58.6014 65.187C64.4808 62.8016 67.6903 59.1398 69.672 55.6263C73.584 48.6909 74.5742 43.2165 74.5742 43.3892Z" fill="#E7EAEE"/>
<path fill-rule="evenodd" clip-rule="evenodd" d="M51.1391 61.4451C48.3354 61.0851 45.5527 60.0793 43.3054 58.5866C41.9717 57.7079 39.9556 55.6433 38.979 54.1717C37.5823 52.0543 36.6582 49.7886 36.2068 47.3537C35.8812 45.5856 35.8917 42.8647 36.2172 41.2874C36.5533 39.678 36.9839 38.45 37.7504 36.8936C38.6429 35.0939 39.588 33.7704 41.0056 32.3413C43.4209 29.9062 46.2246 28.3605 49.564 27.6194C50.6456 27.3865 54.5624 27.196 54.6989 27.3759C54.7305 27.4289 54.9405 27.5665 55.1611 27.6829C55.3815 27.81 55.9695 28.2546 56.4526 28.6887C57.1772 29.3239 57.5026 29.7262 58.1328 30.7215C58.5632 31.399 58.9099 32.013 58.9099 32.066C58.9099 32.1824 59.2458 32.3941 59.4348 32.3941C59.6973 32.3941 59.876 31.6002 59.9285 30.2026C59.9599 29.4298 60.023 28.7947 60.065 28.7947C60.212 28.7947 61.8291 29.6945 62.5852 30.2026C64.0658 31.1979 65.5465 32.5954 66.6385 34.0563C67.132 34.7128 67.2055 34.8822 67.2055 35.2845C67.2055 35.6549 67.3106 35.9408 67.6361 36.5125C68.4552 37.9524 69.0957 39.7628 69.4843 41.7638C69.7363 43.1082 69.7363 45.6491 69.4738 47.0572C68.7597 50.932 66.6385 54.7857 63.8767 57.2314C61.5352 59.2959 59.0464 60.5664 56.1062 61.1909C55.0979 61.4133 52.0736 61.5615 51.1391 61.4451ZM43.6309 54.2035C43.7254 54.0976 43.7884 53.9388 43.757 53.8647C43.7476 53.8424 43.616 53.7801 43.4235 53.6889C42.9749 53.4763 42.1949 53.1065 41.8569 52.7213C40.5128 51.1756 40.0192 50.0217 39.7147 47.6396C39.4206 45.3209 39.6677 43.7536 40.1977 41.2344C40.4563 40.0055 41.1436 38.9904 41.5711 38.3588C41.8619 37.9295 42.0326 37.6774 41.8668 37.6559C41.4572 37.5924 41.3943 37.6242 40.9637 38.037C40.0396 38.9264 39.6196 39.6357 39.1786 41.0015C38.496 43.1401 38.3641 48.9196 39.7147 51.5249C41.0652 54.1304 43.3894 54.4787 43.6309 54.2035ZM58.5632 45.3104C58.3849 46.955 57.6287 49.3335 56.7466 50.371C56.3371 50.8579 54.8338 51.6943 53.5648 51.5249C52.3391 51.3614 51.3807 50.7839 50.5615 49.5452C49.858 48.476 49.4946 47.1779 49.2489 45.5433C48.8247 42.7205 50.6772 39.4345 51.4752 38.6194C52.2837 37.783 52.8613 37.4865 53.5964 37.476C54.3105 37.476 54.7725 37.6347 55.497 38.1535C56.8201 39.0852 58.9099 42.1144 58.5632 45.3104ZM44.408 36.5548C44.618 36.3114 44.6495 36.195 44.5866 35.7397C44.5445 35.3163 44.4605 35.1469 44.2399 34.9668C43.8515 34.6493 43.3684 34.6493 43.0113 34.9879C42.7594 35.2315 42.7278 35.3163 42.7594 35.8985C42.7909 36.5232 42.8119 36.5655 43.1584 36.756C43.6203 37.0101 44.0719 36.9359 44.408 36.5548ZM50.9607 30.0227C49.0705 31.3885 48.2513 31.9495 47.4007 32.4789C46.7287 32.9024 46.5187 32.913 46.5187 32.5319C46.5187 32.3307 46.6656 32.1083 47.0437 31.759L47.5688 31.2719L46.5501 31.1343C45.4056 30.986 44.2925 30.6685 44.0509 30.425C43.6519 30.012 43.9984 29.9167 45.1325 30.1286C45.6366 30.2133 46.6133 30.3192 47.3062 30.3404L48.5664 30.3932L49.4799 29.7262C51.4856 28.2653 53.5648 27.4395 54.5624 27.6936C55.182 27.8418 55.1085 28.0111 54.405 28.0958C53.5964 28.1911 53.1028 28.4663 50.9607 30.0227Z" fill="white"/>
<path d="M53.6592 50.0745C53.6592 50.0217 53.7221 49.9688 53.8062 49.9688C53.8902 49.9688 53.9953 50.0217 54.0268 50.0745C54.0582 50.1382 53.9953 50.1805 53.8798 50.1805C53.7537 50.1805 53.6592 50.1382 53.6592 50.0745Z" fill="white"/>
<path d="M54.2896 49.9791C54.2896 49.8626 54.5521 49.7568 54.8462 49.7568C55.0772 49.7673 55.0772 49.7673 54.8778 49.9156C54.6466 50.0955 54.2896 50.1273 54.2896 49.9791Z" fill="white"/>
<path d="M52.6617 49.704C52.6303 49.6193 52.5883 49.4711 52.5567 49.3863C52.5252 49.2805 52.5777 49.2275 52.7142 49.2275C52.8297 49.2275 52.9242 49.291 52.9242 49.3758C52.9242 49.4604 52.9558 49.598 52.9873 49.6933C53.0293 49.8099 52.9977 49.8627 52.8822 49.8627C52.7877 49.8627 52.6828 49.7886 52.6617 49.704Z" fill="white"/>
<path d="M53.2185 49.4393C53.166 49.1216 53.2815 49.0159 53.6595 49.0159C53.775 49.0159 53.8695 49.1216 53.9115 49.3017C53.9956 49.6087 53.8591 49.757 53.4915 49.757C53.3234 49.757 53.2499 49.6829 53.2185 49.4393Z" fill="white"/>
<path d="M52.147 49.4923C51.9476 49.3335 51.9476 49.3335 52.168 49.3335C52.3047 49.3335 52.3992 49.397 52.3992 49.4923C52.3992 49.6828 52.3992 49.6828 52.147 49.4923Z" fill="white"/>
<path d="M54.258 49.4816C54.1215 49.344 54.1844 48.9311 54.3525 48.8676C54.657 48.7512 54.7935 48.8041 54.8564 49.0793C54.8986 49.2382 54.9195 49.3758 54.8986 49.3863C54.8145 49.4816 54.3209 49.5453 54.258 49.4816Z" fill="white"/>
<path d="M55.1923 49.2594C55.161 49.2276 55.1294 49.09 55.1294 48.9629C55.1294 48.783 55.2133 48.7089 55.4655 48.6559C55.6859 48.6136 55.8225 48.6348 55.8855 48.7194C55.9904 48.8888 55.9904 49.1005 55.8959 49.1535C55.7069 49.2594 55.2659 49.3229 55.1923 49.2594Z" fill="white"/>
<path d="M51.6641 48.9311C51.6641 48.8042 51.7586 48.6982 51.8951 48.6666C52.168 48.5925 52.1576 48.5818 52.2101 48.8571C52.2311 49.0159 52.1786 49.0794 51.958 49.1005C51.727 49.1323 51.6641 49.09 51.6641 48.9311Z" fill="white"/>
<path d="M52.4622 48.9416C52.3152 48.7828 52.4097 48.4863 52.6093 48.4863C52.7457 48.4863 52.8193 48.5605 52.8193 48.6876C52.8193 48.8886 52.5777 49.058 52.4622 48.9416Z" fill="white"/>
<path d="M53.0923 48.624C53.0084 48.4229 53.1868 48.2747 53.5333 48.2747C53.6909 48.2747 53.7645 48.3381 53.7645 48.4759C53.7645 48.5923 53.6699 48.6981 53.5333 48.7404C53.1868 48.8252 53.1658 48.8252 53.0923 48.624Z" fill="white"/>
<path d="M56.1273 48.5923C56.1587 48.5393 56.2112 48.4863 56.2428 48.4863C56.2742 48.4863 56.2637 48.5393 56.2322 48.5923C56.2008 48.6557 56.1482 48.6981 56.1167 48.6981C56.0851 48.6981 56.0957 48.6557 56.1273 48.5923Z" fill="white"/>
<path d="M54.0373 48.4122C53.9534 48.2005 54.0583 48.0947 54.3944 48.0417C54.5834 48.0206 54.6673 48.0629 54.6885 48.2111C54.7618 48.5605 54.1634 48.751 54.0373 48.4122Z" fill="white"/>
<path d="M51.5173 48.2325C51.4228 47.883 51.4438 47.8513 51.7169 47.8513C51.8638 47.8513 51.9793 47.8936 51.9793 47.9466C51.9793 47.9996 52.0108 48.116 52.0424 48.2006C52.0738 48.3066 52.0108 48.37 51.8324 48.4019C51.6328 48.4442 51.5593 48.4019 51.5173 48.2325Z" fill="white"/>
<path d="M55.0244 48.116C55.0244 47.9254 55.0979 47.8406 55.2975 47.7877C55.5915 47.7137 55.7595 47.8618 55.7595 48.2006C55.7595 48.3382 55.6756 48.3807 55.392 48.3807C55.0665 48.3807 55.0244 48.3489 55.0244 48.116Z" fill="white"/>
<path d="M51.2022 48.116C51.1708 48.0312 51.1918 47.957 51.2442 47.957C51.3073 47.957 51.3493 48.0312 51.3493 48.116C51.3493 48.2006 51.3283 48.2747 51.3073 48.2747C51.2863 48.2747 51.2442 48.2006 51.2022 48.116Z" fill="white"/>
<path d="M52.2628 48.2005C52.1159 48.0629 52.1998 47.7664 52.3889 47.7136C52.5043 47.6818 52.6198 47.6923 52.6514 47.7241C52.7775 47.8405 52.7039 48.1475 52.5463 48.2112C52.3469 48.2853 52.3469 48.2853 52.2628 48.2005Z" fill="white"/>
<path d="M56.0118 48.1266C55.8962 47.8196 56.0222 47.5867 56.3163 47.5549C56.5367 47.5232 56.5998 47.5655 56.5998 47.7349C56.5998 48.0843 56.4844 48.2748 56.2742 48.2748C56.1587 48.2748 56.0432 48.2114 56.0118 48.1266Z" fill="white"/>
<path d="M52.9979 47.9889C52.8719 47.8725 52.914 47.6607 53.0924 47.5971C53.292 47.5231 53.712 47.7349 53.5965 47.8513C53.4495 47.9782 53.0715 48.0735 52.9979 47.9889Z" fill="white"/>
<path d="M53.9113 47.7241C53.8168 47.5758 54.1529 47.3218 54.426 47.3218C54.5519 47.3218 54.6044 47.3852 54.5834 47.5017C54.5415 47.7136 54.0058 47.8828 53.9113 47.7241Z" fill="white"/>
<path d="M51.0343 47.6499C51.0343 47.597 51.0029 47.4805 50.9713 47.3852C50.9398 47.2899 50.9503 47.2158 51.0133 47.2158C51.1499 47.2158 51.2549 47.6183 51.1288 47.7029C51.0764 47.7347 51.0343 47.7136 51.0343 47.6499Z" fill="white"/>
<path d="M51.3178 47.4064C51.2549 47.1736 51.381 47.0042 51.6225 47.0042C51.759 47.0042 51.8955 47.4171 51.8115 47.5547C51.6959 47.7348 51.3704 47.6288 51.3178 47.4064Z" fill="white"/>
<path d="M52.0527 47.4595C51.8953 47.3008 51.9898 46.9197 52.1998 46.8667C52.3572 46.8244 52.4413 46.8773 52.5253 47.0679C52.5884 47.2055 52.6198 47.3431 52.5988 47.3643C52.4939 47.4595 52.1158 47.5337 52.0527 47.4595Z" fill="white"/>
<path d="M54.8879 47.4594C54.7514 47.3218 54.8144 47.2371 55.1295 47.1207C55.392 47.0359 55.4655 47.0466 55.5179 47.1735C55.6124 47.4277 55.0875 47.6711 54.8879 47.4594Z" fill="white"/>
<path d="M55.8119 47.2161C55.7069 47.0467 55.8538 46.8984 56.1269 46.8984C56.4524 46.8984 56.5469 47.1736 56.2528 47.2584C55.9379 47.343 55.8854 47.3325 55.8119 47.2161Z" fill="white"/>
<path d="M56.7046 46.9619C56.7046 46.8031 56.8936 46.6337 56.9777 46.7184C57.0512 46.7925 56.9042 47.1102 56.7991 47.1102C56.7466 47.1102 56.7046 47.0467 56.7046 46.9619Z" fill="white"/>
<path d="M50.8975 46.8244C50.8556 46.7926 50.824 46.655 50.8346 46.5385C50.8346 46.3373 50.845 46.3373 50.9395 46.5703C51.0446 46.8244 51.0236 46.9515 50.8975 46.8244Z" fill="white"/>
<path d="M51.0974 46.6655C51.0029 46.2948 51.0133 46.2632 51.2864 46.2632C51.5909 46.2632 51.7799 46.6548 51.5489 46.8031C51.3074 46.9513 51.1709 46.9089 51.0974 46.6655Z" fill="white"/>
<path d="M54.7095 46.8773C54.7095 46.8455 54.762 46.6761 54.825 46.4855C54.972 46.0621 55.2975 46.0409 55.371 46.4539C55.4024 46.6127 55.413 46.7502 55.4024 46.7609C55.3501 46.8244 54.7095 46.9197 54.7095 46.8773Z" fill="white"/>
<path d="M51.8426 46.6126C51.8006 46.5808 51.769 46.4538 51.769 46.3372C51.769 46.168 51.8006 46.1573 51.9267 46.2633C52.0106 46.3372 52.0841 46.4643 52.0841 46.5384C52.0841 46.6972 51.9581 46.7397 51.8426 46.6126Z" fill="white"/>
<path d="M55.6229 46.4009C55.5599 46.0727 55.6964 45.9245 56.0219 45.9668C56.1793 45.9879 56.2319 46.0832 56.2319 46.3161C56.2319 46.5808 56.1899 46.6444 55.9589 46.6656C55.7279 46.6972 55.6754 46.6444 55.6229 46.4009Z" fill="white"/>
<path d="M56.6522 46.4432C56.5157 46.0197 56.5577 45.8926 56.8412 45.8608C57.0934 45.8291 57.1248 45.8608 57.1248 46.1361C57.1248 46.369 57.0618 46.4643 56.9044 46.5066C56.7889 46.5384 56.6734 46.5066 56.6522 46.4432Z" fill="white"/>
<path d="M50.7402 45.8396C50.7402 45.6385 50.7612 45.5537 50.7928 45.6596C50.8138 45.7549 50.8138 45.9243 50.7928 46.0301C50.7612 46.1254 50.7402 46.0408 50.7402 45.8396Z" fill="white"/>
<path d="M51.0026 45.9775C50.8661 45.8504 50.9291 45.4374 51.0971 45.374C51.3387 45.2787 51.4542 45.3951 51.4542 45.7444C51.4542 45.9668 51.4016 46.0514 51.2651 46.0514C51.1601 46.0514 51.034 46.0198 51.0026 45.9775Z" fill="white"/>
<path d="M51.6327 45.6917C51.5908 45.5327 51.5698 45.3633 51.6117 45.3317C51.7167 45.2257 51.7798 45.3951 51.7482 45.7022L51.7167 45.9987L51.6327 45.6917Z" fill="white"/>
<path d="M55.0244 45.6174C55.0244 45.5009 55.077 45.4373 55.1295 45.4691C55.1924 45.5009 55.2344 45.6067 55.2344 45.6915C55.2344 45.7761 55.1924 45.8396 55.1295 45.8396C55.077 45.8396 55.0244 45.7443 55.0244 45.6174Z" fill="white"/>
<path d="M55.4972 45.7551C55.3503 45.5963 55.4658 45.3105 55.7072 45.2469C56.0119 45.1727 56.0223 45.1727 56.1168 45.4797C56.1797 45.6703 56.1378 45.7128 55.8648 45.7551C55.6968 45.7869 55.5287 45.7762 55.4972 45.7551Z" fill="white"/>
<path d="M56.463 45.5538C56.3475 45.448 56.379 45.0985 56.4945 45.0985C56.5575 45.0985 56.5996 45.0562 56.5996 44.9927C56.5996 44.9398 56.5365 44.8868 56.4525 44.8868C56.2739 44.8868 56.127 44.3681 56.2739 44.2198C56.463 44.0292 56.673 44.2305 56.799 44.7492C56.8726 45.0245 56.9461 45.3421 56.9776 45.448C57.0196 45.5856 56.9776 45.6279 56.778 45.6279C56.6416 45.6279 56.4945 45.5962 56.463 45.5538Z" fill="white"/>
<path d="M57.0301 44.9927C56.9567 44.675 56.7677 44.0399 56.631 43.5741C56.421 42.8964 56.4 42.727 56.5155 42.6529C56.5891 42.5999 56.6836 42.5576 56.7151 42.5576C56.8306 42.5576 57.2506 44.728 57.2087 45.1514L57.1771 45.5749L57.0301 44.9927Z" fill="white"/>
<path d="M50.6353 44.9398C50.6353 44.7704 50.6562 44.7069 50.6878 44.8127C50.7088 44.908 50.7088 45.0562 50.6878 45.1304C50.6562 45.1938 50.6353 45.1199 50.6353 44.9398Z" fill="white"/>
<path d="M50.8451 44.9186C50.8872 44.5481 51.1917 44.4634 51.2756 44.8022C51.3492 45.0774 51.3701 45.0457 51.0551 45.1515C50.8347 45.2151 50.8137 45.1938 50.8451 44.9186Z" fill="white"/>
<path d="M55.2765 44.8233C55.1924 44.5163 55.371 44.3364 55.7069 44.3787C55.9591 44.4103 56.0536 44.8656 55.8436 45.0032C55.581 45.1726 55.3395 45.0985 55.2765 44.8233Z" fill="white"/>
<path d="M51.4541 44.7387C51.4541 44.5587 51.5065 44.4634 51.6221 44.4634C51.7271 44.4634 51.769 44.5375 51.748 44.6963C51.6955 45.0351 51.4541 45.0669 51.4541 44.7387Z" fill="white"/>
<path d="M50.5196 44.2939C50.5196 44.1775 50.5512 44.1458 50.5827 44.2305C50.6141 44.3046 50.6037 44.3999 50.5722 44.4317C50.5406 44.474 50.5092 44.4104 50.5196 44.2939Z" fill="white"/>
<path d="M50.7192 44.2622C50.7192 44.1033 50.7822 44.0398 50.9397 44.0398C51.0867 44.0398 51.1392 44.0928 51.1183 44.2197C51.0657 44.4951 50.7192 44.5267 50.7192 44.2622Z" fill="white"/>
<path d="M51.2964 44.1671C51.2229 43.9765 51.2229 43.9765 51.538 43.8917C51.727 43.8282 51.769 43.8601 51.769 44.0188C51.769 44.2728 51.391 44.3999 51.2964 44.1671Z" fill="white"/>
<path d="M55.0978 44.0187C55.0243 43.7541 55.1609 43.6165 55.5284 43.6165C55.7068 43.6165 55.7594 43.6799 55.7594 43.8811C55.7594 44.0399 55.6964 44.1457 55.6125 44.1457C55.5284 44.1457 55.3919 44.1775 55.3078 44.2093C55.2133 44.241 55.1399 44.1775 55.0978 44.0187Z" fill="white"/>
<path d="M56.0119 43.7753C55.9278 43.5635 56.0539 43.4048 56.2953 43.4048C56.4423 43.4048 56.4949 43.4789 56.4949 43.6695C56.4949 43.8601 56.4423 43.934 56.2848 43.934C56.1694 43.934 56.0433 43.86 56.0119 43.7753Z" fill="white"/>
<path d="M50.6143 43.627C50.6143 43.4048 50.8558 43.1506 50.9609 43.267C51.0029 43.2988 51.0343 43.4471 51.0343 43.5847C51.0343 43.7541 50.9713 43.8282 50.8243 43.8282C50.6878 43.8282 50.6143 43.7541 50.6143 43.627Z" fill="white"/>
<path d="M51.1918 43.5001C51.1077 43.2354 51.2022 43.119 51.5592 43.066C51.8847 43.0237 51.9898 43.373 51.7063 43.5848C51.4333 43.786 51.2653 43.7542 51.1918 43.5001Z" fill="white"/>
<path d="M54.9928 43.4364C54.9193 43.373 54.8877 42.9812 54.9508 42.9812C54.9612 42.9812 55.1187 42.9389 55.3077 42.8859C55.6228 42.7906 55.6438 42.8013 55.6334 43.0871C55.6228 43.2988 55.5599 43.4048 55.4022 43.4471C55.1187 43.5212 55.0767 43.5212 54.9928 43.4364Z" fill="white"/>
<path d="M54.6045 43.1931C54.6045 43.119 54.636 43.0872 54.678 43.119C54.7096 43.1613 54.7096 43.2248 54.678 43.2671C54.636 43.2989 54.6045 43.2671 54.6045 43.1931Z" fill="white"/>
<path d="M55.7807 43.0235C55.8123 42.8434 56.1378 42.5787 56.2113 42.6635C56.2429 42.6952 56.2954 42.8223 56.3268 42.9599C56.4003 43.1716 56.3688 43.1929 56.0748 43.1929C55.8229 43.1929 55.7493 43.1504 55.7807 43.0235Z" fill="white"/>
<path d="M50.7192 43.0129C50.7192 42.9599 50.7718 42.8541 50.8242 42.7693C50.9083 42.6424 50.9292 42.6529 50.9292 42.8541C50.9292 42.981 50.8873 43.087 50.8242 43.087C50.7718 43.087 50.7192 43.0552 50.7192 43.0129Z" fill="white"/>
<path d="M51.0342 42.78C51.0342 42.4835 51.2548 42.3882 51.4228 42.6106C51.5277 42.7693 51.5277 42.8223 51.4228 42.8964C51.2022 43.034 51.0342 42.9917 51.0342 42.78Z" fill="white"/>
<path d="M54.2266 42.6424C54.0376 42.4307 54.0376 42.4201 54.2162 42.4835C54.3211 42.526 54.4576 42.5576 54.5101 42.5576C54.5627 42.5576 54.6046 42.6318 54.6046 42.7166C54.6046 42.9388 54.4576 42.9176 54.2266 42.6424Z" fill="white"/>
<path d="M51.9686 42.6318C51.517 42.2825 51.454 41.499 51.874 41.499C52.1576 41.499 52.4201 41.9436 52.378 42.3566C52.3466 42.7377 52.2205 42.8223 51.9686 42.6318Z" fill="white"/>
<path d="M54.8462 42.6954C54.8881 42.6637 54.9511 42.6637 54.9932 42.6954C55.0246 42.7378 54.9932 42.7695 54.9197 42.7695C54.8462 42.7695 54.8146 42.7378 54.8462 42.6954Z" fill="white"/>
<path d="M56.4318 42.2825C56.4632 42.1872 56.4948 42.092 56.4948 42.0708C56.4948 42.0496 56.5473 42.0283 56.5999 42.0283C56.6628 42.0283 56.7048 42.1236 56.7048 42.2402C56.7048 42.3671 56.6313 42.4519 56.5367 42.4519C56.4213 42.4519 56.3899 42.399 56.4318 42.2825Z" fill="white"/>
<path d="M50.9292 42.2506C50.9292 42.007 51.1498 41.6047 51.2757 41.6047C51.4963 41.6047 51.3388 42.2824 51.1076 42.3247C51.0131 42.3459 50.9292 42.314 50.9292 42.2506Z" fill="white"/>
<path d="M53.2916 42.1343L52.9766 42.0601L53.2601 41.986C53.5542 41.9014 53.7642 41.9649 53.7642 42.1449C53.7642 42.2507 53.7536 42.2507 53.2916 42.1343Z" fill="white"/>
<path d="M52.9243 41.6259C52.9243 41.1919 53.1659 41.1283 53.3865 41.5095C53.5335 41.7637 53.5439 41.8165 53.4074 41.8165C53.3233 41.8165 53.1869 41.8483 53.0923 41.8801C52.9664 41.9329 52.9243 41.8694 52.9243 41.6259Z" fill="white"/>
<path d="M54.7517 41.7742C54.2791 41.5625 53.9746 41.0015 53.9746 40.3345C53.9746 39.8581 54.0166 39.7416 54.3001 39.4769C54.4786 39.3075 54.6572 39.1699 54.7097 39.1699C54.9407 39.1699 55.7913 39.985 56.0748 40.4932L56.4003 41.0756L56.0538 41.4461C55.6548 41.8695 55.2136 41.986 54.7517 41.7742Z" fill="white"/>
<path d="M52.5568 41.499C52.5253 41.446 52.5463 41.3931 52.5988 41.3931C52.6618 41.3931 52.7143 41.446 52.7143 41.499C52.7143 41.5625 52.6933 41.6048 52.6723 41.6048C52.6408 41.6048 52.5884 41.5625 52.5568 41.499Z" fill="white"/>
<path d="M51.181 41.3297C51.2125 41.2344 51.2441 41.1392 51.2441 41.118C51.2441 41.0968 51.3386 41.0757 51.4541 41.0757C51.7166 41.0757 51.727 41.2449 51.4645 41.3932C51.181 41.5414 51.1074 41.5308 51.181 41.3297Z" fill="white"/>
<path d="M52.0108 41.2026C51.7692 41.1709 51.6957 41.0332 51.8533 40.9379C51.8953 40.9062 52.0843 40.8533 52.2733 40.811C52.5569 40.7473 52.6094 40.7685 52.6094 40.9485C52.6094 41.1709 52.3888 41.2662 52.0108 41.2026Z" fill="white"/>
<path d="M52.8193 40.8427C52.8193 40.7157 52.8297 40.6416 52.8507 40.6628C52.8613 40.6839 52.9452 40.7899 53.0188 40.8956C53.1448 41.0439 53.1343 41.0757 52.9874 41.0757C52.8823 41.0757 52.8193 40.9909 52.8193 40.8427Z" fill="white"/>
<path d="M51.3491 40.7684C51.3491 40.705 51.4017 40.6309 51.4542 40.5992C51.5172 40.5674 51.5591 40.6097 51.5591 40.6945C51.5591 40.7898 51.5172 40.8637 51.4542 40.8637C51.4017 40.8637 51.3491 40.8214 51.3491 40.7684Z" fill="white"/>
<path d="M51.7376 40.6098C51.6535 40.398 52.3991 40.1652 52.525 40.3662C52.6195 40.5356 52.525 40.6098 52.126 40.6946C51.8844 40.7474 51.7795 40.7262 51.7376 40.6098Z" fill="white"/>
<path d="M52.7247 40.271C52.7247 40.1545 52.7561 40.1229 52.7877 40.2075C52.8193 40.2816 52.8087 40.3769 52.7773 40.4087C52.7457 40.451 52.7142 40.3874 52.7247 40.271Z" fill="white"/>
<path d="M51.8323 40.1013C51.9582 39.8684 52.3258 39.4873 52.4203 39.4873C52.5253 39.4873 52.5358 39.9849 52.4308 40.0485C52.3782 40.0697 52.2103 40.1226 52.0527 40.165C51.8217 40.2179 51.7692 40.2073 51.8323 40.1013Z" fill="white"/>
<path d="M52.6721 39.8581C52.5566 39.5404 52.6091 39.4028 52.8611 39.3605C53.1237 39.3075 53.1237 39.3075 52.9556 39.6357C52.7456 40.0591 52.756 40.0591 52.6721 39.8581Z" fill="white"/>
<path d="M52.6094 39.2227C52.6094 39.2016 52.8194 39.0533 53.0819 38.9052C53.3968 38.7147 53.6174 38.651 53.7749 38.6935C53.9639 38.757 53.9115 38.7993 53.4494 39.0217C52.9349 39.2545 52.6094 39.3392 52.6094 39.2227Z" fill="white"/>
<path d="M58.4374 29.8428C58.1539 29.4299 57.5553 28.7629 57.1247 28.3606C56.6943 27.9583 56.4108 27.6301 56.4947 27.6301C56.7257 27.6301 58.49 28.117 58.931 28.3076C59.2984 28.4664 59.309 28.4875 59.2145 28.8158C59.162 29.0064 59.12 29.4828 59.12 29.8745C59.12 30.2768 59.0884 30.5944 59.0465 30.5944C58.9939 30.5944 58.7314 30.2556 58.4374 29.8428Z" fill="white"/>
<path d="M37.068 61.9108C36.6375 61.6884 36.543 61.5615 35.9971 60.471C35.2094 58.9252 35.1884 58.5653 35.9339 59.4441C36.228 59.7934 36.9106 60.5133 37.4461 61.0426C38.3596 61.9319 38.4018 61.9954 38.0972 61.9531C37.8767 61.9214 37.7926 61.9426 37.8451 62.0272C37.9712 62.2178 37.5722 62.1648 37.068 61.9108Z" fill="white"/>
<path fill-rule="evenodd" clip-rule="evenodd" d="M54.6663 81.1996C54.5791 80.9909 54.6763 80.7504 54.8833 80.6627L55.1095 80.5659C57.3091 79.617 58.5717 79.047 59.4296 78.1418C60.2875 77.2367 60.3902 75.9073 60.5514 75.0983C60.5955 74.8764 61.0942 75.2663 61.3143 75.3109C61.5345 75.3555 61.6772 75.5716 61.6329 75.7935C61.4392 76.7662 60.9174 77.6935 60.0772 78.5737C59.24 79.4509 57.6188 80.3913 55.1988 81.4184C54.9919 81.5063 54.7534 81.4082 54.6663 81.1996Z" fill="#00160A"/>
<path fill-rule="evenodd" clip-rule="evenodd" d="M64.6134 38.9572C64.8065 38.8414 65.0561 38.9052 65.1709 39.0997C66.3213 41.0478 66.9375 43.2749 66.9375 45.5919C66.9375 52.6115 61.2933 58.3019 54.3308 58.3019C52.4806 58.3019 50.6863 57.8996 49.0432 57.1331C48.8393 57.038 48.0693 56.281 48.8447 56.589C49.6203 56.8968 52.6208 57.5879 54.3524 57.5879C60.8656 57.5879 65.4735 52.1587 65.4735 45.5919C65.4735 43.4235 64.6134 41.499 64.4721 39.5192C64.4557 39.2896 64.4205 39.0729 64.6134 38.9572Z" fill="#00160A"/>
<path fill-rule="evenodd" clip-rule="evenodd" d="M24.3379 69.9877C24.4815 69.8139 24.738 69.4623 24.9106 69.6072C25.6186 70.2017 26.374 70.8905 27.1821 71.0234C28.0231 71.1618 29.0207 71.1618 30.1737 71.0211C30.3967 70.9939 30.5992 71.1541 30.6262 71.3788C30.6533 71.6036 30.4945 71.8079 30.2715 71.8352C29.0469 71.9846 27.974 71.9846 27.0512 71.8327C26.0955 71.6754 25.2067 71.251 24.3901 70.5652C24.2175 70.4203 24.1941 70.1617 24.3379 69.9877Z" fill="#00160A"/>
<path d="M32.9724 55.6432C32.4473 55.2198 31.3236 53.9706 30.473 52.8695C30.032 52.2871 29.5385 51.1014 29.2444 49.905C29.1079 49.3651 28.9714 48.8782 28.9399 48.8146C28.8979 48.7618 28.7299 48.01 28.5618 47.1419C28.3099 45.9137 28.3632 45.5182 28.1418 44.0492C28.0481 43.4272 27.9634 42.9322 27.9634 42.9322L28.2363 42.5788C28.3938 42.3671 28.5931 42.0168 28.6669 41.8165C29.003 40.905 31.4706 38.0476 31.5442 38.1218C31.5651 38.1429 31.4812 38.6405 31.3342 39.2227C31.1977 39.8051 31.0296 40.6838 30.9561 41.1814C30.851 42.0071 30.8091 42.1024 30.4836 42.3777C30.074 42.7271 29.2969 43.8493 29.2969 44.0822C29.2969 44.3999 29.7695 44.1881 30.263 43.6694L30.7671 43.14V43.7222C30.7671 44.1033 30.6936 44.4528 30.5571 44.728C30.2946 45.2468 30.2946 45.7973 30.5465 46.2208C30.6726 46.4325 30.7881 46.9407 30.8616 47.5442C31.1871 50.2757 31.8802 52.6471 33.0669 55.0292C33.3608 55.6221 33.5918 56.1091 33.5814 56.1091C33.5604 56.1091 33.2873 55.8974 32.9724 55.6432Z" fill="white"/>
<path fill-rule="evenodd" clip-rule="evenodd" d="M76.667 62.1756L77.4231 62.5144C77.5799 62.5872 79.3095 63.4251 81.3869 64.4315C84.7364 66.0542 88.9903 68.1148 89.0162 68.1148C89.0583 68.1148 89.2553 67.6554 89.2997 67.1197C89.4048 65.9658 89.7932 64.3987 90.2448 63.3083C90.4548 62.8214 90.6228 62.2126 90.6228 62.1598C90.6228 62.1355 90.4522 62.0662 90.1727 61.9525C89.8399 61.8172 89.3532 61.6193 88.8167 61.3603C86.1705 60.0793 80.9934 57.4643 80.3529 57.0725C79.7228 56.7021 79.5968 56.6702 79.5968 56.9138C79.5968 57.2314 78.9562 58.703 78.4627 59.4969C78.2003 59.9311 77.6856 60.7145 77.3182 61.2332L76.667 62.1756ZM88.8377 66.2091C89.1388 66.3851 88.6171 66.6432 88.4912 66.6856C87.7491 66.7492 86.8756 66.6085 86.1599 66.188C85.7858 65.9205 82.8391 64.27 80.8845 63.1753C79.9909 62.6748 79.3046 62.2904 79.1664 62.2074C78.7252 61.9427 78.3052 61.6568 78.2317 61.572C78.0113 61.2862 78.2213 61.1592 78.8407 61.2121C79.2132 61.2439 88.1872 65.8291 88.8377 66.2091Z" fill="white"/>
<path d="M69.1273 63.1285C68.8542 63.0332 68.5603 62.8215 68.3712 62.5779L68.0562 62.1861L69.1693 61.0745C70.881 59.3806 72.141 57.5293 73.2752 55.4649C73.6532 54.7768 74.7767 52.0014 74.9134 51.6944C75.1234 51.2498 75.2808 51.0804 75.7324 50.8263C76.2679 50.5087 76.8769 50.4029 77.1395 50.5828C77.6436 50.9216 77.6436 51.9909 77.1395 53.8329C76.583 55.8551 75.8375 57.3056 74.2938 59.3912C74.0522 59.7089 73.6006 60.3334 73.2752 60.7675C72.4036 61.9321 71.8365 62.4933 71.0699 62.9272C70.314 63.3508 69.8728 63.4037 69.1273 63.1285Z" fill="white"/>
<path d="M73.0863 62.8849L72.8657 62.6625C72.8657 62.6625 76.5259 57.9743 77.1818 56.2468C77.6821 54.9286 77.9767 54.5547 78.3741 54.5547C78.5965 54.5547 78.7778 54.6059 78.8618 54.733C79.0088 54.9552 79.1505 55.2305 78.9615 56.1727C78.6464 57.6973 78.1635 58.7031 76.7143 60.8734C76.3783 61.371 75.9478 61.9216 75.7587 62.1121C75.3176 62.5249 74.3255 62.9484 73.7479 63.0437C73.3804 63.0966 73.2753 63.0755 73.0863 62.8849Z" fill="white"/>
<path fill-rule="evenodd" clip-rule="evenodd" d="M79.2342 57.9824C79.446 57.494 79.5968 57.0679 79.5968 56.9138C79.5968 56.6702 79.7228 56.7021 80.3528 57.0725C80.9934 57.4643 86.1704 60.0793 88.8167 61.3603C89.8038 61.8367 90.6228 62.1068 90.6228 62.1598C90.6228 62.2126 79.0095 58.5003 79.2342 57.9824Z" fill="#E7EAEE"/>
<path fill-rule="evenodd" clip-rule="evenodd" d="M43.3054 58.5865C41.9717 57.7078 39.9556 55.6432 38.979 54.1716C37.5823 52.0542 36.6582 49.7886 36.2068 47.3536C35.8812 45.5856 35.8917 42.8646 36.2172 41.2873C36.5533 39.678 36.9839 38.4499 37.7504 36.8936C38.6429 35.0938 39.588 33.7703 41.0056 32.3412C42.3958 30.9395 36.2172 36.7356 37.7504 47.1062C38.979 55.7965 44.2591 59.22 43.3054 58.5865Z" fill="#E7EAEE"/>
</g>
<defs>
<clipPath id="clip0_2_2">
<rect width="122" height="123" fill="white"/>
</clipPath>
</defs>
</svg>
