<svg width="64" height="64" viewBox="0 0 800 800" fill="white" xmlns="http://www.w3.org/2000/svg">
<path d="M775 250H650V25C650 11.2 638.8 0 625 0H175C161.2 0 150 11.2 150 25V250H25C11.2 250 0 261.2 0 275V575C0 588.8 11.2 600 25 600H150V775C150 788.8 161.2 800 175 800H625C638.8 800 650 788.8 650 775V600H775C788.8 600 800 588.8 800 575V275C800 261.2 788.8 250 775 250ZM200 50H600V275H200V50ZM200 475H600V750H200V475ZM750 550H625V475C625 461.2 613.8 450 600 450H200C186.2 450 175 461.2 175 475V550H50V300H750V550ZM100 350H125V375H100V350ZM150 350H175V375H150V350Z" fill="white"/>
<path d="M567.518 520.517C554.117 517.873 542.241 525.667 538.163 537.168H433.767V520.002H365.221V537.168H260.825C256.747 525.667 244.854 517.873 231.471 520.517C221.651 522.457 213.649 530.336 211.592 540.155C208.079 556.824 220.675 571.501 236.697 571.501C247.87 571.501 257.295 564.309 260.825 554.335H365.221V558.18C290.026 573.578 232.499 638.142 228.369 716.902C228.112 721.829 232.019 726 236.954 726C241.461 726 245.248 722.498 245.471 717.983C249.053 648.201 299.177 590.779 365.221 575.69V588.668H433.767V575.673C499.811 590.779 549.935 648.201 553.517 717.966C553.757 722.498 557.527 726 562.034 726C566.969 726 570.876 721.829 570.619 716.902C566.489 638.142 508.962 573.578 433.767 558.18V554.335H538.163C541.71 564.309 551.118 571.501 562.291 571.501C578.314 571.501 590.909 556.824 587.413 540.155C585.34 530.336 577.337 522.457 567.518 520.517ZM236.697 554.335C231.968 554.335 228.129 550.49 228.129 545.752C228.129 541.014 231.968 537.168 236.697 537.168C241.427 537.168 245.265 541.014 245.265 545.752C245.265 550.49 241.427 554.335 236.697 554.335ZM416.631 571.501H382.358V537.168H416.631V571.501ZM562.291 554.335C557.561 554.335 553.723 550.49 553.723 545.752C553.723 541.014 557.561 537.168 562.291 537.168C567.021 537.168 570.859 541.014 570.859 545.752C570.859 550.49 567.021 554.335 562.291 554.335Z" fill="white"/>
</svg>
